<svg xmlns="http://www.w3.org/2000/svg" width="595.28" height="841.89" viewBox="0 0 595.28 841.89"><path fill="#DFE0E1" d="M300.71 362.108s7.09 32.87 9.95 76.574c2.862 43.705 2.834 108.75 2.834 108.75h41.034V295.148H248.77l-3.13 253.445h44.365s.095-54.37.095-109.802c0-55.433 8.1-77.31 8.1-77.31h7.518"/><path d="M296.59 362.756c-.82-3.776.17 2.09-.612-2.454.22.49.468 1.203.612 2.454z"/><path d="M291.26 364.96c-.278 1.534-.567 3.125-.866 4.764a262.56 262.56 0 0 1-.826 5.055c-.15.86-.3 1.728-.45 2.603l-.366 2.662-.773 5.41c-.296 1.813-.467 3.65-.65 5.48-.182 1.833-.362 3.66-.54 5.473-.15 1.813-.384 3.604-.43 5.378-.072 1.772-.13 3.515-.165 5.216-.058 1.59-.394-.438-.496 3.16-.02 1.65-.06 3.417-.12 5.277-.06 1.858-.01 3.816-.04 5.842-.03 4.05-.112 8.382-.228 12.804-.115 8.846-.3 18.052-.543 26.077l-.118-.972c-.088 3.06.3 6.794.242 10.034-.078.027-.11-1.036-.218-.285.235.814.104 5.856.28 7.23-.095 1.282-.28 1.153-.386 2.81l.268 1.857c.635 5.154-.056 12.52.27 19.558-.063-.338-.11-1.033-.172-.475.38 11.295.294 25.426.426 38.057-.095-.503-.268-.97-.375-.23.184.437.277 2.107.334 4.543-1.198.023-2.504.05-3.745.072-1.525-.29-5.804.266-9.776.105l.337-.065c-2.936.306-4.354-.175-6.734.19l-1.86-.23c-1.29.412-4.246-.21-6.67-.003l.078.084c-2.287.1-3.477-.106-5.597-.037l-.2-.048c-4.99.107-7.78-.12-7.88.198-.502-.063-.37-.103.014-.132l1.543-.068c1.08-.044 2.035-.103.67-.29l-3.636.067c-.066-15.27.18-30.804.364-46.065.15-1.866.206-3.056.332-3.474-.044-1.64.018-6.187-.127-7.683 0 .55.177-1.06.204-1.928.158-2.992-.312-3.272-.128-6.555.068 1.308.166 1.75.29 1.316-.214-2.808-.128-6.552-.168-9.865.048.516.07 1.317.17 1.193-.237-3.626.143-6.607.003-9.785l.17 1.19c.288-5.106-.368-1.512-.18-5.93.044 1.06.12.687.194.88-.287-4.125-.093-10.793-.156-14.91.022.245.073.18.073.18.013-4.48.176-9.16.09-14.093.105-1.792.445.592.436-4.15-.374.168-.054-8.055-.508-5.26.11-4.053.33-10.46.237-13.16.12 1.822.478-1.97.468 1.396l.256-2.54c.147.378-.083 2.618.118 1.813.006-1.693-.08-6.61 0-8.118-.19-3.125-.58-6.004-.564-11.065.115 2.38.426-1.35.47.27l-.624-7.07c.003-1.686.298-.363.23-2.8-.1.127-.146-.935-.217-1.68.05-.63-.007-7 .367-7.73.153-.737.043 2.748.196.883.035-3.11-.088-3.25-.055-6.36l.05-.06c.08-2.054-.082-6.056-.312-3.824-.03 1.43.227-.54.094 1.573-.195-1.45-.21-5.064-.175-8.175.046 1.062.145.935.243 1.363-.236-4.184-.272-8.614-.333-13.282-.173-.075.294 1.744.194 2.43.313-5.982-.19-12.36.224-17.335.02.816-.252.438-.202.383.057-2.882.308-2.75.237-4.628.15-.182-.02-2.36-.04-4.293-.095-1 .078-.502.074 1.182-.046-1.347-.093-4.716-.09-8.526.014-1.904.03-3.92.043-5.847.02-.964.042-1.906.06-2.8l.097-2.793c-.042.063-.1-.93-.15-2.396.933-.037 2.034-.08 3.058-.122l1.032-.037.757-.01-.558.228c1.304.137 4.795-.02 5.033.176 1.24-.114-.46-.096-2.646-.05l-3.334.08c-1.408.02-2.56.04-3.035.045-.002.305-.01.335-.02-.022l.755-.032c.41.05 1.083.05 1.883.03.458-.01.667-.025 1.006-.043l.924-.057c1.194-.076 2.144-.137 1.7.02 2.876-.01 5.66-.267 8.406-.052-.8-.037-2.333.316-.01.3 4.082-.04 1.16-.108 4.474-.185l2.078-.094c.14-.224 3.653.028 2.134-.22.503.184 5.94-.113 5.52.256l-.568.29c1.765-.02 2.89-.306 4.282-.435.23.028.695.087.606.134.282-.445 4.218.037 6.315-.307 3.707.154 9.416.013 11.164.292 2.845-.136 5.446-.296 8.694-.2-.648.04-1.536.054-1.718.15 2.04.13 2.542.014 4.405-.06-.415.067 4.08.26 6.347.42 2.83-.134 1.86-.374 2.143-.52 2.59.438 7.99-.284 11.23.114-.98.06-4.128.215-1.776.326 2.59.438 5.218-.324 9.39-.113l-1.024-.365c1.857.226 6.142-.21 5.715.16 1.396-.13 4.92.12 4.455-.234.827.036 1.697.06 2.596.078l3.937.03-.002 9.94c-.022 2.74-.103 5.145-.345 6.742.06.98 0 3.433.182 2.93.198-1.63-.143-2.28-.007-2.885.012.88.108 1.072.157 1.165-.08 2.13-.106 3.807-.402 1.793-.22 4.74.604 4.89.466 10.92-.146-.274-.202.184-.18 1.95l.253 3.348c-.06 3.9-.335 2.215-.584 2.31.042 2.083.03 4.637.216 5.58l-.313 2.532c.227-1.844.15 1.715.212 2.695l-.062-.98c-.105.385-.04 2.793-.01 4.01.155-.284.218-2.745.262-4.088.11 1.067.084 2.723.214 4.134-.246-.465-.175 3.397-.2 5.054-.054 1.902.22 2.142.21 2.698-.127.047-.02 3.103-.198 1.62-.04-.648.123-1.48.012-2.553-.095 1.253-.315 1.108-.154 3.706.12 1.958.482-.503.328 3.212-.062-.978-.16-1.156-.246-1.91l-.127 3.477.223.148c-.057.47-.076.146-.105.363.234 1.034.07 5.31.335 6.098.023 1.757-.154 3.695-.18 5.37l-.02-.32c-.13 2.047-.044 4.77.106 6.49l-.05-.09c-.017 1.116.02 3.76.15 5.16-.17 2.83-.842.954-.562 4.08.008 2.867.408 4.496.55 3.34-.15 5.155.213 11.004-.132 15.783.09.74.146.274.198 1.802-.088 7.568.265 15.978-.173 22.003-.094-2.195-.223-.147-.35-.1.2 1.81-.207 2.175.135 2.826.2-.183.3 0 .38-2.133.108 4.514.108 11.377-.08 13.885.094-1.254.155-.285.216.704-.32-.33-.37 3.002-.257 5.52l.195.357-.2 1.637c.062.97.41 1.07.22 3.57-.074.127-.15.272-.206.73.158 2.61.43 6.28.264 9.108l-.285 2.315c.03 1.207.2 3.24.284 1.114-.172 4.824-.193 7.936-.44 9.466.603 8.31.626 20.373.583 30.037l-.146-.284c-.137 2.595.257 1.346.155 3.158-.14-.84-.304 1.978-.475-.062-.154 3.713.254 4.785.32 7.2.192.367-.123-1.94.12-1.474.07.413-.15 5.137.142 5.715-.114.93-.328.206-.446-.297l.14 2.27c-.34 2.774-.605-6.323-1.024-3.412l.046 2.095c-.305 1.993-.344-5.534-.448-.286.144 2.28.565 4.23.693 2.198.08 4.74.694 2.195.67 7.293-.17 1.394-.04-4.08-.28-3.1-.234 2.4.13 4.82.05 6.954.054-1.187.154-1.278.248-.882.048.198.094.52.13.886.02.12.035.54.05.865.01.346.02.695.028 1.03-.062 2.013-.123 1.523-.176 1.06-.053-.475-.095-.95-.117.724l-1.3-.012c-.216.042-.726.082-1.31.12l-.895.053-.48.052c-.28.034-.446.065-.36.097.04.016.145.03.332.045l.34.02.72.023-.79.104c-.2.024-.415.037-.642.044-.45.014-.95-.003-1.47-.02-1.04-.037-2.163-.085-3.162.062-1.198-.268 3.782-.62-.254-.754.64.26-4.98.352-2.847.734-1.584-.074-1.748-.277-.595-.436-2.263-.16-5.483.47-6.226-.04l-.777.263c-.707-.087-1.72-.15-2.874-.294-1.994-.005-6.416.357-6.234-.04-.64.04-5.184.022-3.43.298 2.826.168 3.248-.2 4.82.17-1.994-.303-4.072.04-5.71.143l-.265-.154c-.972.06-3.212.026-3.818.193.743-.09.356-.193-.42-.23l-1.02.234c-.33.015-1.274.02-1.83.016a29.107 29.107 0 0 1-1.313-.03c-.617-.03-.785-.085-.94-.14-.077-.026-.15-.055-.27-.08l-.048-.01.004-.066.018-.158.03-.393c.036-.607.053-1.547.03-3.242l.1 2.52.037.895.007.208.21-.003.387-.014.792-.028c-.275.01-.613.004-1.006-.01l-.305-.013c-.01-.1.005-.227.006-.346.01-.24.02-.498.028-.77.014-.532.027-1.124.043-1.775l.004-.895c-.005-.213-.01-.435-.017-.664-.218-.714-.48-2.055-.647-2.668-.102-2.164.237-.972.01-3.1l.27 2.79c.07.42.347-1.886.327-4.777-.094-1.848-.436-4.717-.52-1.797-.02-1.454.088-3.486.257-2.335-.11-3.288-.226.432-.39-2.403.13-1.162.292-4.775.475-6.958l.39 2.958-.02-1.972c.316 2.55.206-1.292.524.14.032-1.344-.09-2.973-.183-4.27-.438 3.938-.71-4.4-1.14-3.253-.194-5.384 1.07-3.384.25-8.992-.094.923-.492-1.723-.284 1.668-.03-3.348-.497-2.268-.408-6.22.25 2.925.373-3.15.737 1.073-.154-.282-.057 2.36.002 3.01.136-1.385.45.276.37-3.153-.093-2.09-.17-4.96-.39-4.54-.25.094.103 3.196-.186 1.86-.186-4.168.183-4.872-.307-6.59.097 2.635-.147 3.3-.32 3.255l-.18-3.06.183.59c.004-4.91-.34-1.44-.408-6.2l.28-2.238c.312 1.125.036 6.922.48 6.065-.054-3.093-.314-4.113-.263-7.032l.145 2.174c-.012-1.107.58-2.23.113-6.63-.195-2.272-.18-.598-.355-.647-.09-2.48-.174-4.092-.276-5.48-.12-1.386-.225-2.553-.313-4.15.37.646-.23-5.642.282-2.13-.063.815-.005 3.015.12 5.23.136 2.212.228 4.447.426 5.322.36-1.822.036 3.898.47 4.956-.086-3.986.315-3.806.56-4.455-.008-1.105-.144-2.174-.2-2.832-.255-.458-.217.985-.467 1.076 0-2.224-.122-4.4-.272-6.328-.145-1.928-.316-3.604-.492-4.82.05-1.49.317-1.03.422.725-.318-5.28-.547-10.926-.707-15.942-.247 3.26-.353-5.59-.58-3.36.034 2.692-.142 5.018-.39 3.548-.053-1.682.177.043.228-.663-.316-2.125.195-3.345-.246-5.423.354 4.813.53.91.883 1.778-.338-3.47.23.134.068-3.305-.275-3.466-.826-7.697-1.178-11.538a101.726 101.726 0 0 0-.586-8.47c-.355-2.98-.7-5.9-.956-8.048-.076-2.267.434-.782.24-3.235-.31-2.864-.15 2.17-.445-2.093l.118.398c-.24-1.27-.74-7.796-1.402-8.985l.546 1.258c-.065-.793-.245-1.516-.368-2.164.12-.047.116-.984.36.293-.047-2.655-.778-5.485-1.205-8.314l.04 1.855c-.88-4.83-1.118-8.112-1.99-12.773l.242.102-.587-2.762c.328.642.042-1.937-.413-3.37 0 0 .478 1.777.896 3.568.43 1.79.863 3.58.863 3.58.202 2.033-.624-2.156-.633-.857-.02 1.1.772 5.423 1.062 6.097-.216-1.668-.292-1.742-.58-3.014.213-.597.63 1.922 1 3.144-.134-.87-.233-2.125-.366-2.294.428 1.682.684 3.414 1.113 6.266-.4-1.917-.035 1.078-.23.357.292.19.81 2.9 1.198 6.445.008 2.567 1.037 6.617 1.47 10.73-.483-1.63-.97-3.728-1.395-6.205.187 2.586.368 2.86.556 5.453.37 1.22.773 2.075 1.244 5.427l-.183.202c.42 3.04.72 3.01 1.065 6.9.335 3.326.518 6.716.768 9.9l.65 8.718-.193.206c.564 2.805.6 9.44.97 13.242.108 6.506.85 14.1.657 17.444.197 2.863.3 5.64.394 8.376l.284 8.147c.177 5.423.326 10.9.43 16.84l-.342-1.99c.268 2.123-.137 1.385-.044 3.47.173-2.4.39 2.89.575 4.36-.17 5.293.157 12.084.416 16.77l-.2.185c.443 4.737.162 10.402.106 16.308-.04.412-.108.614-.162 1.02-.026.197-.05.428-.065.687l.006.183.196.007h.433l.79-.107 1.02-.08 2.04-.113 5.348-.208c3.43 0 8.996.08 12.482.21 2.803-.102 5.62-.166 8.45-.208l7.282-.075c-.012-3.294-.022-6.608-.033-9.94-.02-3.753-.052-7.526-.13-11.317l.238-.97c-.51-13.004-.047-28.995-.308-40.098l.407 1.073c.126-3.478-.106-7.933-.396-7.047.126-3.49-.197-8.706.14-10.922.073-3.565-.19-4.364-.244-7.328.154-7.14.12-9.792.043-16.52l-.026 1.666c.09.74.263.805.288-.87-.112-2.51.11-9.235-.376-6.735.28-7.187-.23-16.762.15-23.752-.134.596-.16-1.17-.248-1.913-.006-6.304.265-12.932.04-17.965.065-1.006.225 1.598.24-.97-.052-1.52-.175-.036-.25-1.904-.247-10.214.257-20.683.192-29.973-.257-16.513-.127-33.738-.17-49.56l.098.18c-.104-1.47-.12-3.083-.103-4.734.016-.825.03-1.66.047-2.492l.008-.306.008-.077.015-.16.028-.34a8.8 8.8 0 0 0-.51-.03c-.568 0-1.122.004-1.653.006-1.178.022-2.262.083-3.2.208-1.253-.093-4.786-.044-3.853-.232-4.22.264-11.814-.248-17.912.086.56.01.88-.01 1.527-.053-6.16-.216-11.595.08-18.095-.116.66-.042 1.857-.073 2.05-.17-2.508-.188-5.95.412-7.33-.06-1.437.005-1.024.237-.14.223-14.238-.183-29.433.118-44.242.225-5.084-.135-5.447-.322-5.37-.443.038-.06.186-.104-.09-.116-.07 0-.166 0-.296-.002l-.21.004-.136.007-.814.067c.01.118.02.27.035.438-.093.263.178.273.08.287l.013.232-.007.55c-.01.364-.027.708-.05 1.038-.048.66-.118 1.258-.184 1.826-.13 1.137-.246 2.15-.137 3.277.3-.924.143 1.5.318 1.568-.268 6.486-.545 7.787-.388 12.912l-.147-.387c.355 6.01.04 12.96.472 18.037-.265 33.114-.52 64.854-.777 97.142-.49 31.912-.652 63.16-1.315 95.562-.208 3.19-.327 5.14-.392 6.98-.033.92-.052 1.81-.06 2.816l-.005 1.373.023.417.318-.03.22-.016.956-.018c-.335.064-.86.08-.302.14.42-.327 5.874-.03 6.67-.344l16.728.01c4.88-.013 9.788-.025 14.946-.04v-.144c.014.063.063.158.116.26.007.052.03.11.142.14.02-.02.03-.09.024-.205l-.032-.094-.034-.082-.02-.042-.01-.024-.01-.113c-.05-.606-.103-1.212-.103-1.212l.092-.394c-.047-1.585-.207-3.314-.314-1.678-.256-30.97.428-61.435.373-91.767l.237-25.337c.06-2.91.32-5.78.526-8.623l.623-8.458.16-2.096.234-2.085c.154-1.39.31-2.775.462-4.16l.455-4.148c.146-1.382.288-2.764.517-4.14l1.22-8.28 1.54-8.317.966-4.182c.16-.7.313-1.403.52-2.104l.63-2.245c.15-.535.348-1.093.524-1.643l.136-.415c0-.1.095-.07.165-.075l.217-.002.87-.01c.892-.01 1.786-.018 2.682-.027l4.39-.05s-.77.212-2.754.448c-.497.052-1.07.11-1.724.18l-1.046.086-1.447.087c-.255.02-.533.014-.78.054l-.237.833c-.167.548-.31 1.178-.42 1.632-.237 1.005-.545 2.083-.775 3.28z"/><path d="M297.492 367.315c-.015.842.376 3.514-.222 1.436.105-.288.027-1.69.222-1.435zM304.326 438.965c.053.09-.02 1.027-.035 1.257-.053-.885-.23-1.707-.177-2.417.055.896.125.755.213 1.16zM305.084 457.345c-.16-.27-.457-4.195-.583-6.516l.584 6.515zM305.17 474.492c-.09 1.485-.166 1.077-.21-.918.073-.147.128.51.21.918zM305.53 475.7a19.972 19.972 0 0 1-.1 2.83c.125-.06-.157-3.3.1-2.83zM305.877 512.922c.022.896.165 2.832.012 3.668.102-.937-.235-4.352-.013-3.668zM306.29 530.222c-.003.56-.03.787.013 1.438-.063 1.024-.174-.056-.19-.923l.178-.515zM329.4 294.05l1.872-.07-.276.143zM243.198 348.78c.07 1.87-.153 1.3-.178 1.61.005-1.687.172.626.178-1.61zM243.006 423.248l.004-.566.296.196zM246.135 305.835l15.258-.375c4.578-.114 9.918-.253 15.64-.345l17.928-.33 9.107-.206c3.004-.093 5.96-.12 8.82-.158 2.862.003 5.628.03 8.25.112 2.622.062 5.102.147 7.39.25 9.155.383 15.26 1.05 15.26 1.05v.3s-6.105.667-15.26 1.05c-2.288.103-4.768.188-7.39.25-2.622.083-5.388.11-8.25.112-2.86-.04-5.816-.065-8.82-.157-3.004-.07-6.055-.138-9.106-.206l-17.927-.33c-5.722-.093-11.062-.232-15.64-.346l-15.258-.375v-.298zM246.106 325.49s1.984-.58 4.907-1.57c1.46-.502 3.15-1.118 4.937-1.813 1.783-.71 3.67-1.48 5.498-2.353.908-.448 1.8-.914 2.65-1.417l2.442-1.492 2.227-1.366c.348-.22.684-.44.98-.674.326-.21.615-.433.88-.658a10.75 10.75 0 0 0 1.385-1.3c.215-.203.344-.423.495-.623.165-.196.282-.39.375-.577.23-.363.344-.682.433-.906.094-.23.145-.35.145-.35h.3l.08.387c.056.258.127.65.08 1.15 0 .513-.145 1.12-.386 1.788-.127.33-.273.69-.478 1.02-.194.344-.398.717-.67 1.042-.498.706-1.133 1.37-1.852 2-.704.652-1.525 1.215-2.394 1.748a21.41 21.41 0 0 1-2.807 1.332c-.98.38-1.963.77-2.962 1.11-3.96 1.442-8.02 2.402-11.082 2.98-3.058.603-5.122.832-5.122.832l-.06-.293zM344.033 325.783s-2.063-.23-5.12-.83c-3.064-.58-7.124-1.54-11.084-2.983-1-.337-1.983-.728-2.963-1.11a21.35 21.35 0 0 1-2.807-1.33c-.87-.533-1.69-1.096-2.394-1.75-.72-.628-1.354-1.294-1.853-2-.27-.324-.476-.697-.67-1.04a6.16 6.16 0 0 1-.478-1.02c-.24-.668-.387-1.276-.387-1.79-.047-.5.024-.89.08-1.15l.08-.388h.3l.146.35c.088.226.202.544.433.907.094.185.21.38.376.576.15.2.28.42.495.622.37.427.836.86 1.384 1.3.266.226.555.45.88.66.297.233.633.452.98.672l2.227 1.366 2.44 1.492c.85.503 1.743.97 2.65 1.417 1.827.873 3.716 1.643 5.498 2.353 1.788.695 3.478 1.31 4.937 1.812 2.923.99 4.906 1.57 4.907 1.57l-.06.293z"/><path d="M273.76 295.15s.178.676.383 1.692c.108.508.24 1.1.347 1.735.126.635.215 1.312.32 1.99.086.676.34 1.353.362 1.988.007.635-.166 1.228-.358 1.735-.21.508-.442.932-.667 1.228-.213.296-.388.466-.388.466h-.3s-.176-.17-.39-.466c-.224-.296-.455-.72-.666-1.228-.192-.508-.366-1.1-.358-1.735.02-.635.275-1.312.363-1.99.103-.676.192-1.353.318-1.988.108-.635.24-1.228.347-1.735.205-1.016.384-1.693.384-1.693h.3z"/><path d="M276.736 295.15s.18.676.384 1.692c.108.508.24 1.1.347 1.735.126.635.215 1.312.32 1.99.086.676.34 1.353.362 1.988.006.635-.167 1.228-.36 1.735-.21.508-.44.932-.666 1.228-.213.296-.388.466-.388.466h-.3s-.175-.17-.388-.466c-.225-.296-.456-.72-.667-1.228-.19-.508-.365-1.1-.357-1.735.02-.635.275-1.312.363-1.99.104-.676.193-1.353.32-1.988.107-.635.238-1.228.346-1.735.205-1.016.384-1.693.384-1.693h.3zM313.584 295.15s.18.676.384 1.692c.108.508.238 1.1.348 1.735.126.635.214 1.312.318 1.99.087.676.342 1.353.362 1.988.008.635-.165 1.228-.358 1.735-.21.508-.44.932-.666 1.228-.213.296-.388.466-.388.466h-.3s-.176-.17-.39-.466c-.224-.296-.455-.72-.665-1.228-.194-.508-.367-1.1-.36-1.735.022-.635.276-1.312.363-1.99.104-.676.192-1.353.318-1.988.11-.635.24-1.228.35-1.735.204-1.016.384-1.693.383-1.693h.3z"/><path d="M316.56 295.15s.18.676.384 1.692c.108.508.238 1.1.348 1.735.126.635.214 1.312.318 1.99.087.676.342 1.353.362 1.988.008.635-.165 1.228-.358 1.735-.21.508-.44.932-.666 1.228-.213.296-.388.466-.388.466h-.3s-.176-.17-.39-.466c-.224-.296-.455-.72-.665-1.228-.193-.508-.366-1.1-.358-1.735.02-.635.275-1.312.362-1.99.103-.676.19-1.353.317-1.988.11-.635.24-1.228.348-1.735.205-1.016.385-1.693.384-1.693h.3zM290.223 295.15l.384 8.86c.243 5.315.432 12.404.666 19.492l.205 5.29c.083 1.744.145 3.46.157 5.122a91.943 91.943 0 0 1-.112 4.79 120.18 120.18 0 0 1-.25 4.292c-.376 5.316-1.05 8.86-1.05 8.86h-.3s-.674-3.544-1.05-8.86c-.103-1.33-.188-2.77-.25-4.292a93.06 93.06 0 0 1-.112-4.79c.014-1.662.075-3.378.158-5.123l.205-5.288c.234-7.088.423-14.177.666-19.493l.383-8.86h.3zM301.2 305.985c.19 3.823.327 7.645.484 11.468.17 3.823.254 7.645.385 11.468.12 3.824.228 7.646.402 11.47.094 1.91.15 3.82.134 5.733-.003 1.91-.1 3.822-.196 5.734l-.056 1.107-.94.204a146 146 0 0 1-5.606 1.102c-1.884.31-3.772.605-5.695.78l-.08-.29c1.736-.84 3.507-1.562 5.28-2.268 1.78-.685 3.572-1.333 5.372-1.947l-.997 1.312c-.096-1.912-.193-3.823-.196-5.734-.017-1.912.04-3.823.134-5.734.174-3.824.282-7.646.403-11.47.13-3.822.214-7.644.384-11.467.157-3.823.295-7.645.485-11.468h.3zM252.118 323.502a220.162 220.162 0 0 1-.383-4.42c-.12-1.474-.243-2.947-.34-4.42l-.05-.803.923-.07c1.627-.122 3.254-.208 4.882-.302l2.44-.172c.814-.07 1.628-.153 2.442-.193a22.32 22.32 0 0 1 2.44.027c.407.02.814.072 1.22.107.408.034.814.08 1.22.143.815.105 1.628.248 2.442.425.813.172 1.627.392 2.44.688v.3c-.812.295-1.626.515-2.44.688a28.4 28.4 0 0 1-2.44.426 18.09 18.09 0 0 1-1.22.143c-.408.034-.814.086-1.222.106a22.32 22.32 0 0 1-2.44.027c-.814-.04-1.627-.123-2.44-.193l-2.442-.172c-1.627-.093-3.254-.18-4.882-.302l.872-.872c-.096 1.474-.218 2.947-.34 4.42a226.42 226.42 0 0 1-.382 4.42h-.3zM339.94 323.502a227.776 227.776 0 0 1-.383-4.42c-.12-1.474-.243-2.947-.34-4.42l.873.872c-1.627.122-3.255.208-4.882.302l-2.44.172c-.813.07-1.627.153-2.44.193a22.32 22.32 0 0 1-2.44-.026c-.407-.02-.814-.072-1.222-.107-.406-.034-.813-.08-1.22-.143a28.862 28.862 0 0 1-2.44-.425 17.97 17.97 0 0 1-2.44-.69v-.3a18.265 18.265 0 0 1 2.44-.687c.812-.178 1.627-.32 2.44-.425.406-.063.813-.108 1.22-.143.407-.035.814-.087 1.22-.107a22.32 22.32 0 0 1 2.44-.027c.815.04 1.63.124 2.442.194l2.44.172c1.627.093 3.255.18 4.882.302l.925.07-.053.802c-.096 1.474-.22 2.947-.34 4.42a218.894 218.894 0 0 1-.382 4.42h-.3zM298.838 299.398l-.026.13c-.026.088-.016.205-.073.38-.038.18-.103.377-.187.62-.096.235-.23.506-.455.786-.237.25-.568.53-1 .63l-.162.04-.083.02-.042.01c-.034 0 .072.006-.08-.002h-.028l-.25.018c-.132.026-.525-.053-.766-.123a2.854 2.854 0 0 1-1.32-.902 3.192 3.192 0 0 1-.643-1.62l.005-.13v-.01l-.002-.018-.002-.035-.003-.07-.008-.14c-.015-.056.01-.26.043-.45.063-.403.184-.67.31-.968.293-.565.762-1.06 1.343-1.33.577-.246 1.24-.317 1.755-.158.08.04.472.176.727.342.266.16.384.365.54.534.256.394.363.78.416 1.092.044.32.037.57.03.764.012.19-.033.335-.03.43l-.008.143-.002.018zm-.3-.015l-.036-.12c-.028-.075-.044-.194-.154-.307-.077-.124-.25-.23-.436-.297a1.095 1.095 0 0 0-.64.022c-.092.05-.21.078-.23.15-.03.08.07.1-.17.134-.116.05-.13.128-.193.126-.054.02-.14.002-.27.028l-.143.025c-.022-.013-.062-.043-.08.087l-.035.136-.018.068-.01.034-.003.017v.008l-.002.004c.002-.054-.008.123.005-.118a.904.904 0 0 0-.012.46c.063.15.147.322.29.453l.068.07c.013.026.04.062.144.08l.242.066.015.005.007.002h.003c-.15-.006-.04 0-.072-.002l.02.003.036.008.075.018a1.8 1.8 0 0 0 .667.036c.105-.03.224-.058.328-.104l.27-.18c.148-.145.248-.302.283-.442.063-.128.043-.275.05-.356v-.133.018zM271.565 371.314c-.13.107.14.072-.07.1l.07-.1zM281.583 378.9c-.055-.654.636-1.058.726-1.684.02-.067.17.123.205-.036.036-.637.644-1.31 1.193-1.785l.03.066c.103-.09.017-.328.112-.433l.088.066c-.083-.09.082-.244.037-.34l.226-.004-.073-.138c-.162-.354.294-.45.307-.793l.063.06c.08-.515.423-1.016.64-1.518l.155.104c-.108-.095-.053-.257-.002-.396.16.02.014-.282.17-.387l.02.03c-.065-.187.172-.116.067-.297l.14-.01c-.15-.153.184-.102.147-.245l-.038-.018c.007-.11.122-.1.14-.196l.024.005c.063-.21.224-.258.084-.335.148 0-.056.207.165.202.216-.686.614-1.29.973-1.896.096-.035.14-.07.2-.053.01-.077.112-.243.074-.34l.12-.025c.118-.08-.08-.21.054-.295l.105.127c-.045-.167.054-.295.092-.438l.054.09c-.04-.205.172-.227.165-.39l.053.09c.21-.13-.133-.154.02-.283l.07.085c-.054-.238.14-.455.182-.636l.03.026c.08-.176.227-.32.272-.54.075-.046.18.136.256-.056-.164-.09.11-.335-.13-.34.115-.133.315-.334.32-.465.022.103.24.043.18.176l.15-.037c.058.053-.08.083.022.103l.134-.326c-.03-.173-.148-.388-.057-.586.01.125.205.055.197.13l-.15-.44c.03-.068.134.06.146-.054l-.065-.123c.032-.012.114-.28.287-.214.078.01-.027.12.07.085.066-.115.016-.152.082-.268l.022.01c.07-.063.04-.22-.092-.195l.026.066-.01-.25.115.06c-.082-.144-.083-.23-.105-.31-.11.016.183.002.112.03.256-.194-.083-.193.247-.402l-.164.082.207-.17c.128-.07-.006-.037-.023-.052l.063-.018c-.062-.02-.178-.046.12-.335-.104.078-.35.236-.33.21l.253-.2c.17-.15.03-.07.262-.267-.28.197.117.035-.074.145.23-.2-.34.214.003-.056.03-.06-.25.16.042-.12l.37-.328-.17.104-.095.067c-.288.265.082-.107-.263.227.107-.1.106-.11.108-.12-.042.027-.078.05.198-.216l.39-.372c-.077.053-.465.42-.648.59l.15-.155c-.54.538-.046.004-.476.426.103-.142-.136.064.086-.21-.186.174-.355.354-.336.29.043-.046.07-.068.15-.165.06-.106-.046.016-.132.103.06-.068.1-.2.13-.304-.153.156-.26.35-.352.48.173-.34-.27.304-.154.016l.166-.272c.088-.294-.244.313-.264.204l-.07.243c.016-.136-.14.194-.07-.053-.043.097-.086-.022-.106.19l-.19.042c-.06.033-.128.048-.31-.037l-.067.138c.108.055.053-.11.107-.06l-.007.092c-.1.007-.17.03-.162-.142-.23-.002-.043.365-.305.425l-.116-.04-.068.178c-.162.054-.163-.102-.225-.21-.07.06-.17.106-.162.208l-.17-.087c.124.064-.03.102-.052.148l.023-.047-.155.078.216.034-.106.177c-.04-.12-.17-.01-.238.012l-.053.147c-.03-.056-.123.052-.108-.056l.1-.046c-.07-.017-.116-.117-.177.006-.045.093.132.203-.045.21l.015-.148-.162.014.046.1-.04-.04c.017.126-.183.14-.15.272l-.247.028.008-.015c-.108-.017-.19.076-.22.177l-.01-.023-.16.168c-.146-.017-.233-.352-.286-.166-.107.06-.075.27.002.31-.232.037-.368.315-.63.258l-.02.124c-.31.113-.545.438-.876.365l-.078-.158c-.022.125-.13-.048-.075.117.055.084.07.13.17.124-.146.138-.406.276-.544.244l.023.11c-.064-.15-.2-.104-.27-.003l.032.094-.11-.057c-.02.047.056.203-.082.17l-.076-.077c-.062.123-.137.316-.283.3l-.153-.08c-.04.038-.076.154.024.148-.222.02-.345.074-.46-.005-.175.432-.626.685-1.002.86l-.024-.07c-.13-.01.01.14-.083.13 0-.078-.145-.093-.107-.21-.177.006-.122.208-.198.286.03.092.045-.094.084.023 0 .038-.23.036-.185.176l-.093-.203-.053.108c-.186-.094.097-.394-.11-.52l-.07.062c-.147-.095.13-.263-.094-.204-.053.11-.028.334.08.35-.162.13.078.352-.12.443-.094-.047.144-.1.05-.186-.145-.055-.15.155-.25.16.115.002.107.172.062.227-.13-.008 0-.155-.146-.094.016.086-.082.21.056.203.04.194-.17.03-.176.2-.108-.094 0-.35-.186-.328.085.102-.106.255.064.382-.077 0-.13-.088-.125-.18-.123-.025-.097.317-.245.106l.032.132-.178-.072c-.077.038-.16.287-.246.107-.015.03-.19.114-.06.2.146.02.076-.153.223-.02-.145-.095-.144.1-.182.177l-.046-.063-.1.163-.07-.093.017.124c-.124.13-.133-.164-.263-.056l.068-.14-.17.03c.024.11.033.25.05.335-.06.084-.094-.087-.124.053l.046-.17c0-.04-.154-.12-.262-.058-.053.07-.09.264.05.257-.056.03-.163.014-.156-.078-.107.1.07.093-.006.208-.078-.04-.262-.057-.393-.104l.028-.217-.076.04c.03-.18-.1-.072-.117-.234l-.13.144c.262.135-.012.38.135.553-.176.162-.38-.407-.43.01.06.034.04.235.138.11-.14.047.017.243-.176.24.07-.138-.224-.134-.125-.335l.13-.03c-.092-.047-.093-.202-.223-.133-.07.06-.176.12-.107.214.063.11.115-.076.124.064-.136.123-.253-.033-.213.2.092-.07.178.033.216.11l-.09.108-.018-.086c-.214.045.017.164-.174.24l-.16-.102c-.025-.15.29-.083.15-.27-.122.053-.105.178-.244.183l.06-.084c-.045.016-.23-.235-.314.013-.053.107.016.084.055.163-.176.123-.19.23-.306.308-.054-.163-.22.1-.168-.124.108.055.376-.098.367-.276-.164-.142.16-.053.105-.255-.153.076-.24-.103-.324-.205l-.075.115c.04.118.093.087.155.196a.53.53 0 0 0-.352.362l-.063-.187a2.156 2.156 0 0 1-.613.305c.216.11-.19.154-.03.256.124-.014.278.065.264.174l-.085-.102c-.03.14-.207-.087-.207.107.153-.154-.078-.234-.118-.39-.09.148-.046-.1-.177-.032-.09.147-.22.293-.35.4-.254-.034-.468.244-.63.336-.122-.025-.147-.212-.254-.19-.107.06.17.125-.03.14v-.04c-.03.063-.353.05-.282.3l-.04-.195-.06.085-.063-.148c-.163-.063-.2.13-.307.192l.123.063c-.144.177-.32.144-.482.274l-.046-.1-.076.115c-.024-.108-.155-.118-.17-.008l.152-.388c.108.016-.02.162.078.233.085.062.238-.052.215-.16l-.092.107c-.093-.125.006-.17.006-.288l-.083.054c.03-.1.09-.147.198-.208-.046.092.085.063.078.117-.055-.125.03-.217.183-.255.17.087.206-.224.383-.268a.685.685 0 0 1-.1.395c.132.01.108-.06.24-.052 0-.116-.04-.273.06-.396l.053.085c.092-.107.02-.24.183-.293.276-.09.537-.228.736-.32l.055.086c.006-.25.32-.26.42-.422.292-.044.49-.37.697-.28.398-.3.742-.57 1.21-.774l-.007.17c.03-.138.092.047.16-.014-.145-.056.04-.193.053-.303.254-.005.453-.25.582-.437l.054.086c.09-.263.383-.23.622-.32l.19.04c.046-.208.115-.232.245-.416.13-.07.36-.145.522-.158.38-.463.95-.597 1.393-.99l.092.087c.374-.486 1.088-.603 1.447-.94l.055.2c.16-.013.275-.206.174-.315.16-.015.283-.262.446-.16.153-.037.122-.17.22-.253.308-.076.4-.145.637-.314l-.07.022.1.11c.07-.1.376-.137.168-.3.338-.02.582-.44.936-.412l.014-.148c.238-.13.552-.143.69-.343.054.01-.008.132.093.086l.015-.147c.33-.314.844-.302 1.18-.517.284-.222.596-.406.91-.575.347-.183.69-.365 1.017-.54l.006.052c.143-.18.378-.25.573-.314.202-.066.368-.126.542-.377.076.013.32-.144.225.013.354-.336.675-.217 1.203-.686l-.125.096c.28-.027.81-.474 1.094-.515-.076.063-.174.133-.257.232-.005.108.704-.606.392-.174l.202-.233c.455-.177 1.072-.545 1.803-.987-.13.276-.262.563-.433.89-.727.944-.924.776-.83.96-.122.115.177-.12.068-.033.018.1-.72.693-.538.628.32-.256.11-.028.282-.142-.42.52-.68.702-.66.882l-.12.05c.16.15-.26.63-.106.857l-.92 1.634-.478.927a48.48 48.48 0 0 1-.976 1.828c-.742 1.15-1.333 2.358-2.158 3.484-.34.176-.347.2-.46.548l-.054-.047c.13.1-.116.225 0 .334-.29.425-.493.855-.763 1.31.028-.08-.066-.186-.107-.095l.037.142-.048-.01.1.144c-.56 1.213-1.512 2.166-2.144 3.304-.217.23-.39.64-.532.945-.697.742-1.308 1.42-1.694 2.368-.007.005-.303-.326-.173-.734zM271.734 371.207c.07.056.192.04.163.18l-.163-.18z"/><path d="M274.858 370.506l.07.016-.077.078zM275.58 370.18l-.184.255.183-.255zM276.37 370.1l.01.103-.01-.102zM276.338 369.93l.146.016c-.03-.053-.107.102-.146-.016zM277.85 369.37l.145-.06c-.062-.032-.122.168-.146.06zM278.453 368.924l.053-.03.01.1zM289.662 362.655l-.055.07.045-.106zM289.923 363.497l-.102.017.103-.017zM288.73 366.208l.01-.022.125.083z"/></svg>