<svg xmlns="http://www.w3.org/2000/svg" width="595.28" height="841.89" viewBox="0 0 595.28 841.89"><path fill="#DFE0E1" d="M306.064 340.025s6.908 32.027 9.696 74.61c2.788 42.586 7.013 106.247 7.013 106.247h35.73v-246.1H255.456l-3.05 246.95h38.976s4.345-52.976 4.345-106.987c0-54.01 7.89-75.33 7.89-75.33h7.327"/><path d="M300.992 339.5c-.816-3.75.166 2.075-.61-2.436.22.485.468 1.194.61 2.436z"/><path d="M295.688 341.632c-.253 1.53-.565 3.104-.865 4.728-.25 1.634-.524 3.31-.82 5.02-.15.853-.3 1.714-.455 2.583l-.362 2.643-.768 5.37c-.124.902-.28 1.803-.377 2.712l-.278 2.728-.537 5.432c-.155 1.8-.366 3.578-.44 5.338-.07 1.76-.128 3.49-.163 5.178-.057 1.58-.394-.436-.495 3.138-.213 6.547-.128 14.97-.4 23.75-.226 8.78-.583 17.916-.95 25.874l-.1-.967c-.138 3.03.19 6.746.08 9.96-.08.025-.094-1.03-.214-.288.214.815.026 5.814.145 7.183-.148 1.27-.33 1.135-.504 2.773l.188 1.85c.416 5.136-.586 12.416-.56 19.407-.05-.338-.067-1.03-.152-.48a481.02 481.02 0 0 1-.17 8.873c-.1 3.086-.295 6.277-.462 9.51-.372 6.467-.7 13.1-1.105 19.36-.058-.506-.196-.98-.357-.256.118.318.123 1.445.074 2.912l-.117 2.542-.02.354c-.01.115.023.277-.14.23l-.703.012c-.476.007-.95.015-1.416.02-1.514-.29-5.762.267-9.705.106l.334-.065c-2.914.306-4.323-.175-6.685.19l-1.848-.23c-1.28.412-4.214-.21-6.622-.003l.078.085c-2.27.1-3.452-.106-5.557-.037l-.198-.048c-1.61.035-3 .034-4.136.03-1.18-.007-2.24-.018-2.896-.003-.007-.73-.047-1.07-.16-.963.12-.935.146-.03.17.953.706-.024 1.466-.048 1.83-.092.374-.044.32-.11-.405-.216l-1.136.02c-.11-15.848.153-32.184.345-48.128.15-1.854.205-3.034.33-3.448-.043-1.63.02-6.143-.127-7.627 0 .546.177-1.052.204-1.914.157-2.97-.312-3.248-.13-6.507.07 1.3.168 1.737.293 1.307-.215-2.787-.13-6.504-.17-9.793.048.51.07 1.307.172 1.183-.24-3.6.14-6.56 0-9.713l.17 1.183c.288-5.07-.367-1.502-.18-5.89.045 1.055.122.685.195.877-.286-4.097-.093-10.717-.156-14.805.022.244.073.182.073.182.012-4.45.174-9.097.088-13.99.105-1.78.444.586.435-4.122-.373.167-.054-7.995-.508-5.223.11-4.022.33-10.383.236-13.063.12 1.808.48-1.956.47 1.386l.254-2.523c.147.376-.083 2.6.118 1.8.006-1.68-.08-6.56-.002-8.058-.19-3.102-.578-5.96-.563-10.985.116 2.364.425-1.34.47.27l-.625-7.02c.003-1.673.297-.36.23-2.78-.1.127-.147-.927-.218-1.666.05-.626-.006-6.95.367-7.674.154-.733.045 2.727.197.876.035-3.088-.088-3.226-.056-6.314l.05-.058c.08-2.04-.08-6.013-.31-3.797-.03 1.42.226-.535.094 1.562-.195-1.44-.21-5.028-.175-8.117.045 1.054.144.928.242 1.354-.237-4.154-.272-8.553-.335-13.187-.173-.074.295 1.73.194 2.412.315-5.938-.19-12.27.224-17.21.02.81-.252.436-.203.38.06-2.86.31-2.73.238-4.594.15-.18-.018-2.344-.04-4.263-.094-.99.08-.498.075 1.174-.047-1.338-.094-4.683-.092-8.465l.045-5.805.06-2.78.1-3.066c-.032.035-.07-.495-.11-1.394.436-.023.96-.05 1.522-.082l1.8-.074c.814-.043 1.6-.072 2.09-.068l-.555.23c1.295.136 4.76-.02 4.997.175 1.517-.138-1.404-.08-4.19-.012l-3.92.083c-1.03.015-1.263.007.147-.047.197.024.463.036.78.04h.51l.42-.01a1401 1401 0 0 0 1.82-.1c1.185-.077 2.127-.138 1.686.018 2.856-.007 5.62-.265 8.346-.05-.794-.037-2.316.316-.012.3 4.054-.04 1.153-.108 4.442-.185l2.063-.094c.14-.222 3.626.03 2.118-.218.5.184 5.9-.113 5.48.256l-.563.29c1.752-.02 2.87-.306 4.25-.435.228.027.69.086.603.133.28-.445 4.187.037 6.27-.307 3.68.153 9.346.012 11.082.29 2.824-.134 5.406-.294 8.63-.198-.642.04-1.524.054-1.704.15 2.023.13 2.523.014 4.373-.06-.413.067 4.05.26 6.3.42 2.81-.134 1.848-.374 2.127-.52 2.57.438 7.934-.284 11.15.114-.975.06-4.1.215-1.764.326 2.57.438 5.18-.324 9.32-.113l-1.017-.366c1.844.226 6.097-.21 5.673.16 1.386-.13 4.882.12 4.422-.234.837.037 1.718.062 2.628.08 1.29.01 2.62.02 3.97.028 0 3.31 0 6.755-.003 9.822-.023 2.7-.104 5.067-.345 6.644.06.973 0 3.408.182 2.91.198-1.62-.142-2.264-.007-2.865.012.873.108 1.063.157 1.155-.08 2.116-.106 3.78-.402 1.78-.22 4.705.604 4.852.466 10.838-.147-.27-.203.183-.18 1.936l.252 3.324c-.06 3.87-.335 2.2-.584 2.293.043 2.068.03 4.603.217 5.54l-.313 2.512c.227-1.83.15 1.7.212 2.674l-.062-.973c-.105.384-.04 2.774-.01 3.983.155-.283.218-2.726.263-4.06.11 1.06.084 2.704.213 4.104-.245-.463-.174 3.372-.2 5.016-.052 1.888.22 2.127.21 2.68-.126.046-.02 3.08-.197 1.607-.042-.643.122-1.47.01-2.534-.094 1.245-.314 1.1-.153 3.68.12 1.943.482-.5.328 3.188-.06-.97-.158-1.148-.246-1.896l-.128 3.452.223.147c-.057.466-.076.144-.105.36.234 1.026.07 5.27.335 6.053.023 1.744-.153 3.668-.18 5.332l-.02-.32c-.13 2.034-.044 4.737.106 6.445l-.048-.092c-.018 1.11.018 3.735.148 5.124-.168 2.808-.84.945-.56 4.047.007 2.848.407 4.464.55 3.317-.15 5.117.213 10.924-.133 15.668.09.734.146.27.2 1.79-.09 7.513.263 15.86-.175 21.843-.094-2.18-.223-.147-.35-.1.2 1.796-.207 2.16.135 2.806.2-.18.3 0 .38-2.114.108 4.48.108 11.293-.08 13.783.095-1.246.155-.284.216.697-.32-.327-.37 2.98-.257 5.48l.196.353-.2 1.625c.062.962.41 1.062.222 3.544-.076.126-.153.27-.21.726.16 2.59.432 6.232.267 9.042l-.284 2.298c.03 1.198.203 3.217.285 1.106-.17 4.79-.192 7.878-.44 9.397.604 8.248.627 20.224.584 29.817l-.146-.283c-.138 2.576.256 1.337.154 3.136-.14-.834-.303 1.964-.475-.06-.154 3.684.254 4.75.32 7.147.19.363-.123-1.928.12-1.465.07.41-.15 5.1.142 5.674-.115.923-.33.205-.447-.294l.142 2.254c-.34 2.753-.607-6.277-1.026-3.39l.045 2.08c-.305 1.98-.344-5.492-.448-.282.144 2.263.565 4.198.694 2.183.08 4.705.694 2.18.67 7.24-.17 1.383-.04-4.052-.28-3.078-.234 2.383.13 4.784.05 6.902.108-2.354.402-.362.456 1.16-.068 1.287-.138.87-.193.586-.027-.142-.052-.25-.07-.096-.02.21-.034.357-.042 1.963.064.388.123 1.448.176 2.395-1.252.08-2.294.15.22.22 0-.09.01-.314.017-.567.027.2.05.412.07.654-.56.06-1.292.08-2.098.082-.402-.004-.823-.008-1.255-.01-.324-.01-.657-.018-.995-.025-.965-.035-1.988-.065-2.906.07-1.19-.267 3.753-.618-.253-.753.635.26-4.943.352-2.826.734-1.57-.074-1.734-.277-.59-.436-2.245-.16-5.442.47-6.18-.04l-.77.263c-.703-.086-1.71-.15-2.855-.293-1.98-.005-6.37.357-6.19-.04-.634.04-5.145.022-3.403.298 2.807.168 3.225-.2 4.785.17-1.98-.303-4.042.04-5.667.143l-.263-.153c-.966.06-3.19.026-3.79.193.368-.045.456-.093.356-.135a1.26 1.26 0 0 0-.28-.057c-.158-.017-.22-.03-.635-.04l-1.966.235-1.645.017c-.17-2.505-.08-2.747-.01-3.168a3.83 3.83 0 0 0 .047-.384l.02-.54c.012-.327-.007-.843-.08-1.708l.187 1.44.075.614.08.782.078.75a15.475 15.475 0 0 1-.055-1.007l-.018-.654-.002-.48c0-.634-.017-1.417-.113-2.326-.26-.694-.604-2.008-.81-2.605-.235-2.14.177-.98-.182-3.075l.44 2.75c.098.413.23-1.892.034-4.758-.194-1.826-.69-4.653-.616-1.75-.1-1.442-.1-3.465.13-2.333-.29-3.255-.2.44-.52-2.362.066-1.16.033-4.754.097-6.928l.55 2.91-.125-1.952c.453 2.51.135-1.293.53.11-.04-1.335-.25-2.943-.413-4.226-.228 3.93-.95-4.324-1.317-3.164-.472-5.332.853-3.407-.205-8.935-.055.92-.563-1.686-.215 1.67-.17-3.322-.59-2.228-.667-6.157.373 2.893.24-3.143.78 1.032-.165-.272.043 2.345.128 2.987.078-1.38.462.253.237-3.147-.18-2.07-.374-4.913-.577-4.49-.246.106.236 3.17-.106 1.856-.36-4.128-.022-4.842-.582-6.525.206 2.608-.01 3.278-.187 3.243l-.306-3.03.207.577c-.2-4.874-.4-1.416-.667-6.14l.185-2.23c.36 1.103.327 6.87.736 6-.184-3.066-.486-4.07-.557-6.97l.234 2.153c-.056-1.1.487-2.236-.16-6.584-.29-2.25-.206-.587-.384-.63-.378-4.92-.652-6.378-.89-9.55.384.63-.336-5.604.242-2.127-.093 1.626.397 8.743.836 10.468.283-1.818.198 3.87.676 4.903-.25-3.952.157-3.787.374-4.44-.054-1.097-.233-2.152-.317-2.803-.274-.445-.177.984-.423 1.084-.224-4.41-.64-8.645-1.038-11.055.023-1.48.298-1.032.437.71-.418-5.24-.755-10.844-1.01-15.823-.186 3.24-.46-5.547-.646-3.33.087 2.672-.045 4.984-.32 3.526-.086-1.67.177.042.217-.66-.36-2.11.13-3.325-.35-5.386.443 4.778.547.9.916 1.76-.403-3.44.232.133.007-3.28-.376-3.437-.892-7.636-1.246-11.45a93.27 93.27 0 0 0-.59-8.407c-.352-2.96-.695-5.855-.95-7.988-.073-2.25.436-.777.243-3.212-.31-2.844-.145 2.154-.45-2.076l.12.396c-.242-1.26-.734-7.74-1.395-8.92l.543 1.25c-.063-.79-.242-1.507-.364-2.15.12-.046.117-.978.36.292-.044-2.636-.782-5.443-1.202-8.252l.04 1.842c-.874-4.795-1.114-8.054-1.98-12.68l.243.1-.585-2.74c.328.636.043-1.923-.41-3.347l.286 1.105c.176.663.397 1.55.607 2.437.43 1.776.858 3.553.858 3.553.198 2.02-.622-2.14-.632-.85-.02 1.095.77 5.385 1.058 6.054-.213-1.656-.294-1.728-.576-2.99.21-.593.63 1.907.997 3.12-.133-.865-.236-2.11-.367-2.278.43 1.668.68 3.388 1.11 6.22-.4-1.902-.037 1.07-.23.356.292.19.8 2.88 1.195 6.397.005 2.548 1.032 6.567 1.46 10.65-.48-1.618-.967-3.7-1.39-6.16.185 2.57.366 2.84.552 5.415.367 1.21.785 2.058 1.247 5.386l-.183.202c.417 3.02.717 2.988 1.06 6.85.33 3.304.534 6.666.772 9.828.236 3.162.46 6.128.648 8.654l-.188.204c.625 2.78.78 9.354 1.223 13.122.23 6.45 1.116 13.967.985 17.29.904 11.348 1.713 21.268 2.415 33.04l-.425-1.96c.355 2.095-.08 1.38.1 3.445.08-2.39.496 2.846.772 4.295.117 5.253.81 11.965 1.324 16.594l-.19.193c.69 4.67.727 10.297 1.05 16.147-.02.34-.06.776-.076 1.347-.01.286-.013.605-.005.96 0 .245.01.52.035.82l.12.5 1.242-.142c.494-.036 1.182-.064 1.807-.09 1.303-.052 2.795-.11 4.897-.19 3.406 0 8.932.08 12.393.208 2.426-.088 4.862-.147 7.31-.19l6.134-.08-.04-10.946c-.016-4.088-.046-8.2-.133-12.336l.24-.962c-.51-12.91-.048-28.784-.31-39.806l.408 1.064c.125-3.452-.107-7.875-.396-6.996.125-3.463-.197-8.643.137-10.84.076-3.542-.188-4.335-.242-7.277.155-7.087.12-9.72.044-16.4l-.025 1.655c.09.734.263.8.288-.865-.113-2.49.11-9.167-.377-6.686.282-7.133-.228-16.638.15-23.578-.133.59-.157-1.162-.247-1.9-.006-6.257.265-12.837.04-17.833.065-1 .225 1.585.24-.963-.052-1.508-.175-.036-.25-1.89-.247-10.14.257-20.534.192-29.756-.257-16.392-.127-33.49-.17-49.2l.098.18c-.103-1.444-.12-3.025-.103-4.646l.045-2.447.007-.272.008-.075.016-.157.03-.334a9.912 9.912 0 0 0-.515-.033l-1.68.006c-1.186.02-2.278.08-3.224.207-1.242-.093-4.75-.044-3.824-.232-4.19.264-11.73-.248-17.78.086.554.01.872-.01 1.516-.053-6.114-.214-11.51.08-17.962-.114.654-.042 1.844-.073 2.035-.17-2.49-.188-5.905.412-7.274-.06-1.428.005-1.018.237-.14.223-14.135-.184-29.22.117-43.92.224-5.204-.14-5.426-.334-5.322-.454.052-.06.186-.1-.182-.106-.183-.003-.492.003-1 .02-.283.017-.58.045-.975.085l.01.128c-.093.233.177.326.08.31.014.168.017.31.01.45l-.05.956c-.047.654-.117 1.25-.182 1.813-.13 1.127-.246 2.133-.137 3.25.3-.916.143 1.49.318 1.558-.267 6.438-.544 7.73-.387 12.818l-.148-.385c.356 5.966.04 12.867.474 17.905-.262 32.873-.513 64.383-.77 96.435-.485 31.68-.645 62.7-1.306 94.866-.238 3.63-.36 5.64-.417 7.695-.028 1.025-.04 2.063-.042 3.32l.006 2.07v.29c0 .127.003.073.004.118l.01.13.022.26.16-.017c-.105.065-.26.08-.172.14a.7.7 0 0 1 .327-.146l.09-.015c.03-.002-.01-.004.084-.005l.26-.004c.352 0 .725-.004 1.1-.006 1.506-.006 3.057-.01 3.452-.167l17.417.01c2.877-.01 5.766-.018 8.7-.026 1.27-.002 2.55-.005 3.843-.01.067.003.14.014.12-.082l.092-1.25c-.01.242-.02.47-.027.676 0 .104-.003.202-.004.295l.007.192.093.118.09.01c.026-.062.03.046.08-.664l-.03-2.41.12-.383c.067-1.568.033-3.286-.192-1.678l1.382-22.894c.473-7.603.77-15.19 1.187-22.755.957-15.125 1.117-30.19 1.39-45.222.255-7.12.315-17.34.39-25.14.057-2.89.352-5.737.542-8.56l.62-8.396c.077-1.39.25-2.77.404-4.15l.46-4.13.45-4.117.224-2.057.3-2.05 1.212-8.22c.51-2.736 1.024-5.485 1.542-8.255l.96-4.152a31.83 31.83 0 0 1 .52-2.088l.637-2.263c.15-.53.35-1.087.524-1.632.048-.133.083-.284.14-.403l.432-.004.865-.01c.877-.01 1.755-.018 2.637-.027 1.442-.018 2.895-.034 4.356-.05 0 0-.764.21-2.733.447-.493.052-1.062.11-1.712.18l-1.037.086-1.425.087-.785.042-.095.155-.06.207-.118.417c-.162.535-.32 1.187-.425 1.635-.213 1-.527 2.067-.754 3.257z"/><path d="M301.888 344.025c-.016.836.372 3.49-.224 1.427.106-.287.03-1.68.224-1.427zM308.77 415.15c.055.09 0 1.02-.012 1.25-.07-.88-.264-1.695-.224-2.4.07.89.14.75.236 1.15zM309.875 433.4c-.164-.266-.536-4.162-.706-6.466l.705 6.465zM310.397 450.438c-.026 1.478-.12 1.075-.247-.903.07-.15.15.5.247.903zM310.81 451.622c.096 1.413.056 2.12.02 2.813.12-.063-.297-3.267-.02-2.813zM312.82 488.55c.07.888.318 2.8.21 3.64.054-.936-.467-4.306-.21-3.64zM314.174 505.688c.026.554.015.782.098 1.425 0 1.02-.177-.044-.247-.904l.15-.522zM333.838 270.812l1.857-.07-.274.143zM247.616 324.506c.07 1.856-.153 1.29-.178 1.598.005-1.675.172.62.178-1.598zM247.43 398.432l.005-.564.295.195zM250.54 282.597l15.26-.375c4.577-.114 9.917-.253 15.64-.345l17.927-.33 9.106-.206c3.004-.09 5.96-.117 8.82-.156 2.862.003 5.628.03 8.25.112 2.622.062 5.102.147 7.39.25 9.155.383 15.26 1.05 15.26 1.05v.3s-6.105.667-15.26 1.05c-2.288.103-4.768.188-7.39.25-2.622.083-5.388.11-8.25.112-2.86-.04-5.816-.065-8.82-.157l-9.106-.204-17.928-.33c-5.723-.093-11.063-.232-15.64-.346l-15.26-.375v-.298zM250.512 302.25s1.984-.58 4.907-1.57c1.458-.5 3.148-1.116 4.936-1.81 1.783-.71 3.67-1.48 5.498-2.354.908-.448 1.8-.914 2.65-1.417.832-.51 1.65-1.01 2.442-1.493l2.227-1.366c.348-.22.684-.437.98-.672.326-.21.615-.433.88-.658a10.75 10.75 0 0 0 1.385-1.3c.215-.203.344-.423.495-.623.165-.196.282-.39.375-.577.23-.363.344-.682.433-.906l.146-.35h.3l.08.387c.056.26.127.65.08 1.152 0 .513-.145 1.12-.386 1.788-.127.33-.273.69-.478 1.02-.194.344-.398.717-.67 1.042-.498.706-1.133 1.37-1.852 2-.704.652-1.525 1.215-2.394 1.748a21.41 21.41 0 0 1-2.807 1.332c-.98.38-1.964.77-2.963 1.11-3.96 1.442-8.02 2.402-11.083 2.98-3.058.603-5.122.832-5.122.832l-.06-.293zM348.438 302.545s-2.063-.23-5.12-.83c-3.064-.58-7.124-1.54-11.084-2.983-1-.337-1.982-.728-2.962-1.11a21.35 21.35 0 0 1-2.807-1.33c-.87-.533-1.69-1.096-2.394-1.75-.718-.628-1.353-1.294-1.852-2-.27-.324-.476-.697-.67-1.04a6.16 6.16 0 0 1-.478-1.02c-.24-.668-.387-1.276-.387-1.79-.047-.5.024-.89.08-1.15l.08-.388h.3l.146.35c.087.226.2.544.432.907.094.187.21.382.376.578.15.2.28.42.495.622.37.427.836.86 1.384 1.3.266.226.555.45.88.66.297.233.633.452.98.672l2.227 1.366 2.442 1.492c.85.503 1.742.97 2.65 1.417 1.826.873 3.715 1.643 5.497 2.353 1.788.695 3.478 1.31 4.937 1.812 2.923.99 4.906 1.57 4.907 1.57l-.06.293z"/><path d="M278.165 271.91s.18.678.384 1.694c.107.508.238 1.1.346 1.735.126.634.215 1.31.32 1.988.086.677.34 1.354.362 1.99.007.634-.166 1.227-.358 1.734-.21.508-.442.932-.667 1.228-.213.296-.388.466-.388.466h-.3s-.175-.17-.388-.466c-.225-.296-.456-.72-.667-1.228-.192-.508-.366-1.1-.358-1.735.02-.635.275-1.312.363-1.99.104-.676.193-1.353.32-1.988.107-.636.238-1.23.346-1.736.206-1.016.385-1.693.385-1.693h.3z"/><path d="M281.14 271.91s.18.678.385 1.694c.108.508.24 1.1.347 1.735.126.634.215 1.31.32 1.988.086.677.34 1.354.362 1.99.007.634-.166 1.227-.358 1.734-.21.508-.442.932-.667 1.228-.214.296-.39.466-.39.466h-.3s-.174-.17-.387-.466c-.225-.296-.456-.72-.667-1.228-.192-.508-.366-1.1-.358-1.735.02-.635.275-1.312.363-1.99.105-.676.194-1.353.32-1.988.108-.636.24-1.23.347-1.736.205-1.016.384-1.693.384-1.693h.3zM317.99 271.91c-.002 0 .178.678.383 1.694.108.508.238 1.1.348 1.735.127.634.215 1.31.32 1.988.086.677.34 1.354.36 1.99.01.634-.164 1.227-.357 1.734-.21.508-.44.932-.666 1.228-.213.296-.388.466-.388.466h-.302s-.175-.17-.388-.466c-.225-.296-.456-.72-.666-1.228-.193-.508-.366-1.1-.358-1.735.02-.635.275-1.312.362-1.99.104-.676.192-1.353.318-1.988.11-.636.24-1.23.348-1.736.205-1.016.385-1.693.384-1.693h.3z"/><path d="M320.965 271.91s.18.678.384 1.694c.107.508.237 1.1.347 1.735.126.634.214 1.31.318 1.988.087.677.342 1.354.362 1.99.008.634-.165 1.227-.358 1.734-.21.508-.442.932-.667 1.228-.213.296-.388.466-.388.466h-.3s-.176-.17-.39-.466c-.224-.296-.455-.72-.665-1.228-.193-.508-.366-1.1-.358-1.735.02-.635.275-1.312.362-1.99.104-.676.192-1.353.318-1.988.11-.636.24-1.23.348-1.736.205-1.016.385-1.693.384-1.693h.3zM294.628 271.91l.384 8.86c.243 5.317.432 12.406.666 19.494l.205 5.29c.083 1.744.145 3.46.157 5.122a91.943 91.943 0 0 1-.112 4.79 120.18 120.18 0 0 1-.25 4.292c-.376 5.316-1.05 8.86-1.05 8.86h-.3s-.674-3.544-1.05-8.86c-.103-1.33-.188-2.77-.25-4.292a93.06 93.06 0 0 1-.112-4.79c.013-1.662.074-3.378.157-5.123l.205-5.29c.234-7.087.423-14.176.666-19.492l.384-8.86h.3zM305.604 282.747c.19 3.823.328 7.645.485 11.468.17 3.823.253 7.645.384 11.468.12 3.823.23 7.645.403 11.468.094 1.912.15 3.823.134 5.735-.002 1.91-.1 3.822-.195 5.734l-.056 1.106-.942.204a146 146 0 0 1-5.605 1.102c-1.884.31-3.772.605-5.695.78l-.08-.29c1.736-.84 3.507-1.562 5.28-2.268 1.78-.685 3.572-1.333 5.372-1.947l-.997 1.312c-.096-1.913-.193-3.824-.196-5.735-.017-1.912.04-3.823.134-5.734.175-3.822.283-7.644.404-11.467.13-3.823.215-7.645.385-11.468.156-3.823.294-7.645.484-11.468h.3zM256.523 300.264a220.162 220.162 0 0 1-.383-4.42c-.12-1.474-.243-2.947-.34-4.42l-.05-.803.923-.068c1.627-.122 3.254-.208 4.882-.302l2.44-.172c.814-.07 1.628-.153 2.442-.193a22.32 22.32 0 0 1 2.44.027c.407.02.814.072 1.22.107.408.033.814.08 1.22.142.815.105 1.628.248 2.442.425.812.172 1.626.392 2.44.688v.3c-.813.295-1.627.515-2.44.688a28.4 28.4 0 0 1-2.442.425 18.09 18.09 0 0 1-1.22.143c-.407.036-.813.088-1.22.108a22.32 22.32 0 0 1-2.44.027c-.815-.04-1.628-.123-2.442-.193l-2.44-.172c-1.628-.093-3.255-.18-4.883-.302l.872-.872c-.096 1.474-.218 2.947-.34 4.42a226.42 226.42 0 0 1-.382 4.42h-.3zM344.346 300.264a227.776 227.776 0 0 1-.383-4.42c-.12-1.474-.243-2.947-.34-4.42l.873.872c-1.627.122-3.255.208-4.882.302l-2.44.172c-.813.07-1.627.153-2.44.193a22.32 22.32 0 0 1-2.44-.027c-.407-.02-.814-.072-1.222-.107-.406-.035-.813-.08-1.22-.144a28.862 28.862 0 0 1-2.44-.425 17.97 17.97 0 0 1-2.44-.687v-.3a18.265 18.265 0 0 1 2.44-.688c.812-.178 1.627-.32 2.44-.425.406-.063.813-.108 1.22-.143.407-.035.814-.087 1.22-.107a22.32 22.32 0 0 1 2.44-.027c.815.04 1.63.123 2.442.193l2.44.172c1.627.093 3.255.18 4.882.302l.925.07-.052.802c-.096 1.474-.22 2.947-.34 4.42a218.894 218.894 0 0 1-.382 4.42h-.3zM303.243 276.16l-.026.13c-.026.088-.016.205-.073.38-.037.18-.102.377-.186.62-.096.235-.23.506-.455.786-.237.25-.568.53-1 .63l-.162.04-.082.02-.042.01c-.035 0 .07.006-.08-.002h-.028l-.25.018c-.132.026-.525-.053-.766-.123a2.854 2.854 0 0 1-1.32-.903 3.192 3.192 0 0 1-.643-1.62l.004-.13V275.988l-.003-.036-.002-.07-.008-.14c-.015-.056.01-.26.043-.45.063-.403.184-.67.31-.968.293-.565.762-1.06 1.343-1.33.576-.246 1.24-.317 1.754-.158.08.04.472.176.727.342.266.16.384.365.54.534.256.394.363.78.416 1.092.044.32.037.57.03.764.012.19-.033.335-.03.43l-.008.143-.002.017zm-.3-.015l-.036-.12c-.028-.075-.044-.194-.154-.307-.077-.124-.25-.23-.436-.297a1.095 1.095 0 0 0-.64.024c-.092.05-.21.078-.23.15-.03.08.07.1-.17.134-.116.05-.13.128-.193.126-.053.02-.14.002-.27.028l-.142.025c-.022-.013-.062-.043-.08.087l-.035.136-.018.068-.01.034-.004.017-.002.007v.004c0-.052-.01.125.004-.116a.904.904 0 0 0-.012.46c.062.15.146.322.29.453l.067.07c.013.026.04.062.144.08l.242.066.014.004.008.002h.003c-.15-.007-.04 0-.072-.003l.02.003.036.008.074.018a1.8 1.8 0 0 0 .668.036c.105-.03.224-.058.328-.104l.27-.18c.148-.145.248-.302.283-.442.063-.128.043-.275.05-.356v-.133.018zM286.184 351.84c-.01.078.128.04.023.07l-.023-.07zM296.43 336.193c.2.396-.285.434-.215.772l-.164-.038c.12.36-.233.58-.582.7l-.04-.048.006.22-.09-.065c.092.077-.01.12.05.188l-.19-.062.096.102c.217.252-.142.178-.073.374l-.067-.054c.052.277-.117.47-.18.702l-.156-.105c.113.085.104.164.094.23-.137-.056.055.16-.052.177l-.024-.022c.1.127-.117.018.013.153l-.114-.034c.16.13-.13.006-.066.1l.037.022-.07.075-.022-.01c-.003.105-.127.087.008.172-.125-.043 0-.104-.185-.165-.02.337-.213.575-.373.826l-.155-.025.018.177-.094-.02c-.08.012.116.145.023.156l-.118-.103c.077.11.024.157.025.23l-.066-.07c.084.133-.09.084-.045.182l-.066-.07c-.146.017.146.13.047.16l-.078-.07c.1.155-.013.226-.005.32l-.03-.024c-.027.08-.117.122-.104.236-.052.005-.183-.13-.2-.04.156.097-.016.163.187.234l-.16.18-.19-.154-.12-.022-.04-.066-.038.15c.063.11.213.27.183.36l-.196-.134.23.3-.11-.01.082.09c-.025-.003-.03.13-.19.042l-.08-.07-.005.134-.02-.013c-.044.017.005.134.11.155l-.03-.055.034.2-.097-.092c.08.143.074.234.08.337l-.07-.098c-.16.024.02.28-.176.26l.087.047-.12.02-.005.09-.026-.04c.026.074.016.3-.136.335l.094.174-.09-.07-.124.028c.086.122.017-.243.066-.122-.09-.036.096.186-.026.088-.024.046.056.158-.06.142l-.127-.082.035.118.02.057c.09.063-.05.047.07.092-.082-.042-.01.12-.162.014l-.116-.086.14.183-.062-.027c.184.125-.057.054.067.18-.1.014-.098.138-.232.09l-.002.185-.046-.067-.02.083-.237-.017.197.174c-.21-.08.04.198-.16.14l-.118-.116c-.21-.08.085.168-.045.174l.162.084c-.113-.034.028.15-.124.043.042.058-.1.043.055.132-.193.022-.087.302-.396.192l.047.094c.1.03-.038-.073.025-.045l.054.06c-.055.01-.083.03-.187-.082-.14.013.206.24.088.293l-.095-.02.073.12c-.063.043-.162-.057-.268-.124l.036.143-.155-.046c.113.034.046.066.063.098l-.017-.032-.042.06.15.008.05.122c-.1-.074-.107.004-.134.022l.062.098-.1-.03.03-.035-.1.014c.03.064.207.125.106.14l-.084-.097-.087.018.093.064-.048-.023c.088.08-.022.1.08.185l-.127.033-.005-.01-.02.127-.02-.015.012.12c-.098-.004-.362-.215-.275-.092l.198.2c-.114.038-.02.225-.21.203l.065.083c-.11.09-.046.314-.29.287l-.145-.097c.066.082-.108-.023.03.08l.18.07c0 .1-.066.203-.17.19l.083.07c-.13-.093-.183-.056-.16.013l.078.06-.1-.03c.017.03.16.127.058.114l-.095-.045c.043.083.12.212.023.21l-.143-.042.108.094c-.12.026-.16.068-.277.024.172.29.063.48-.05.615l-.06-.044.035.09-.2-.13c-.1.016.06.143.064.197.076.058-.033-.063.064.01.025.026-.114.038.003.126l-.184-.126.037.073c-.17-.05-.192-.26-.397-.33v.043c-.148-.053-.09-.177-.186-.126l.27.222c-.013.093.27.22.21.292-.087-.025.022-.073-.088-.124-.123-.027.006.11-.05.12l.18.14-.146-.052.162.128c.146.124-.082.03.022.14-.124-.055-.223-.226-.32-.2.116.06.1.17.28.242l-.188-.11c-.09-.01.144.21-.078.083l.103.082-.15-.036c-.022.03.086.194-.08.083.01.02-.04.083.092.132.098.002-.053-.104.12-.027-.148-.052-.024.072.002.125l-.068-.038.043.11-.1-.056.087.08c.01.09-.182-.1-.19-.022l-.05-.094-.08.028.24.214c.018.058-.11-.05-.04.04l-.08-.11-.194-.023.192.163-.142-.042.128.136c-.07-.02-.19-.022-.3-.045l-.12-.142-.022.03c-.095-.118-.104-.04-.217-.145l.015.1c.242.073.234.248.43.35 0 .115-.483-.24-.248.033l.152.063c-.053.037.164.154.048.165-.047-.094-.22-.074-.288-.21l.06-.027-.218-.073c-.002.043-.027.09.073.146.108.068.02-.055.115.035-.004.087-.172-.007 0 .14l.2.06.013.076-.065-.054c-.1.042.114.105.048.165l-.16-.055c-.108-.095.122-.07-.082-.185l-.03.133-.016-.06c-.018.014-.288-.137-.18.028l.137.104.012.216c-.136-.103-.07.077-.18-.07.1.028.16-.085.042-.2-.187-.083.063-.045-.098-.172-.043.058-.208-.053-.323-.114l.028.08c.1.073.11.05.218.117-.072.05-.057.152.02.254l-.157-.117c-.02.1-.09.177-.17.233.2.06-.016.11.145.167l.267.097-.116-.06c.07.09-.18-.045-.056.08-.007-.108-.195-.147-.318-.246.04.1-.092-.063-.125-.01.04.1.054.202.045.28-.172-.008-.123.184-.16.252l-.273-.107c-.026.046.18.072.07.092l-.025-.025c.02.042-.178.053.023.21l-.148-.124.018.06-.13-.093c-.138-.032-.038.095-.062.142l.113.034c.025.122-.1.11-.114.204l-.092-.063.028.08-.106.004-.156-.26c.075.006.09.107.195.147.09.037.11-.046.026-.115l.015.075c-.135-.075-.105-.11-.18-.186l-.015.04-.014-.146.12.07c-.112-.077-.12-.14-.053-.174.156.046-.02-.156.058-.195.1.1.17.19.193.26l.11-.047-.217-.26.087.054-.078-.2c.107-.074.175-.178.236-.25l.088.053c-.154-.16.026-.187-.018-.297.146-.045.058-.267.237-.222.047-.215.082-.41.23-.568l.104.11c-.07-.09.086.025.088-.018-.123-.028-.1-.127-.16-.2.147-.017.11-.187.068-.315l.087.052c-.113-.176.083-.17.167-.243l.14.014c-.106-.138-.08-.157-.12-.284l.21-.132c-.066-.32.187-.44.202-.72l.11.05c-.086-.335.265-.452.265-.69l.16.126c.088-.02.034-.15-.096-.215.087-.02.003-.187.166-.13l-.03-.176c.135-.066.146-.116.18-.24l-.026.02.13.065c-.022-.07.137-.11-.092-.205.188-.033.07-.316.296-.32l-.085-.096c.06-.098.237-.125.192-.263l.11.05-.085-.095c-.003-.222.31-.244.375-.402.055-.32.278-.546.416-.797l.04.03c-.105-.183.282-.085.087-.302l.135.005c-.07-.136.22-.11.14-.295l.007.038c.15-.035.08-.197.226-.243l.05.077c.104.013-.113-.202.098-.095l-.09-.063c.216-.166.24-.478.34-.732.222-.084.338.206.273-.017l-.03-.032c-.022-.085.27.067.19-.035-.13-.064-.054-.066-.127-.115.143-.047.265.004.223-.134l.06.046c-.123-.208.042-.25-.116-.462.288-.526.484-1.083.778-1.587.354-.458.567-.993.996-1.412.243-.006.244-.018.257-.188l.056.042c-.132-.096.046-.098-.078-.195.144-.165.214-.356.334-.544l.112.086-.064-.093.042.02-.106-.114c.186-.547.76-.83 1.025-1.312.128-.072.176-.26.225-.398.412-.232.765-.453.868-.894 0 0 .326.277.313.477zM286.215 351.762c.077.032.14.016.212.108l-.212-.108z"/><path d="M287.63 351.13l.053.006.004.054zM287.854 350.877l.053.175-.053-.175zM288.274 350.78l.07.065-.07-.065zM288.147 350.67l.098.003c-.054-.032 0 .073-.098-.002zM288.69 350.222l.05-.047-.05.047zM288.77 349.9l.01-.023.07.065zM291.62 344.963l.012.048-.057-.042zM292.975 342.868l.083.02-.083-.02zM293.4 341.54l-.003.01-.123-.084zM342.825 444.383c-.01.076.128.038.022.068l-.022-.067zM353.072 428.734c.198.396-.286.434-.216.772l-.164-.038c.118.36-.233.58-.583.7l-.04-.048.006.22-.09-.063c.092.076-.012.118.05.188l-.19-.063.095.102c.22.252-.14.178-.07.374l-.068-.054c.052.277-.117.47-.18.7l-.157-.104c.113.087.105.166.095.232-.138-.057.055.16-.052.176l-.023-.02c.1.126-.117.017.013.15l-.114-.032c.16.13-.13.006-.067.1l.036.02-.07.076-.02-.01c-.005.104-.13.087.007.17-.125-.042-.002-.103-.186-.163-.02.337-.215.574-.374.825l-.155-.025.018.176-.094-.02c-.08.013.114.146.022.156l-.117-.104c.077.11.023.156.025.23l-.066-.07c.083.133-.09.085-.047.182l-.065-.068c-.145.017.147.128.048.16l-.077-.07c.1.153-.012.225-.005.317l-.03-.024c-.026.08-.116.123-.103.236l-.2-.04c.155.098-.017.163.187.235l-.16.18-.19-.154-.118-.02-.04-.067-.038.15c.064.11.215.27.184.358l-.195-.133.23.3-.11-.01.084.09c-.025 0-.03.132-.19.044l-.08-.07-.006.134-.02-.013c-.044.017.005.135.11.155l-.03-.055.034.198-.096-.09c.08.14.074.232.08.336l-.07-.1c-.16.026.02.28-.177.26l.088.05-.12.02-.005.09-.025-.042c.025.075.016.3-.137.336l.095.174-.09-.07-.123.03c.086.12.017-.245.066-.123-.092-.036.096.187-.026.088-.024.046.056.158-.062.142l-.125-.082.033.118.02.06c.092.062-.05.046.07.09-.082-.042-.01.12-.162.015l-.114-.088.14.184-.062-.026c.184.125-.057.055.066.18-.1.014-.098.14-.23.09l-.003.186-.046-.066-.02.082-.236-.018.196.174c-.21-.08.04.2-.158.14l-.12-.116c-.208-.08.086.168-.044.174l.163.084c-.11-.034.03.15-.123.043.042.057-.098.04.055.13-.193.022-.087.303-.396.193l.048.094c.1.03-.038-.073.025-.046l.054.06c-.056.01-.083.03-.188-.08-.14.01.206.237.088.29l-.094-.018.072.12c-.063.042-.162-.06-.268-.126l.036.145-.156-.048c.113.033.046.066.063.098l-.017-.03-.043.058.15.01.05.12c-.1-.073-.108.004-.135.022l.062.098-.1-.03.03-.034-.1.014c.03.063.206.124.104.14l-.084-.097-.088.02.092.062-.047-.023c.09.08-.02.1.08.183l-.127.033-.005-.01-.02.127-.02-.015.012.118c-.098-.002-.36-.214-.275-.09l.198.2c-.114.037-.02.224-.21.202l.064.082c-.11.09-.046.314-.29.287l-.145-.098c.065.08-.108-.024.028.08l.182.07c0 .098-.066.202-.17.188l.082.068c-.13-.092-.184-.055-.16.015l.078.06-.1-.03c.016.032.16.13.057.115l-.095-.045c.04.082.118.21.02.21l-.142-.043.108.095c-.118.025-.158.067-.276.023.17.29.062.48-.05.613l-.06-.043.034.09-.2-.13c-.1.014.06.14.064.195.077.058-.032-.063.065.01.025.026-.113.038.003.126l-.185-.126.037.073c-.17-.05-.192-.262-.396-.33l-.002.043c-.146-.053-.09-.178-.186-.126l.27.222c-.012.094.27.223.21.293-.086-.025.022-.072-.087-.123-.122-.027.008.108-.048.118l.18.142-.146-.053.162.128c.146.123-.082.03.02.14-.122-.056-.222-.226-.317-.202.116.062.1.172.28.244l-.187-.11c-.09-.01.143.212-.078.083l.103.084-.15-.036c-.022.03.086.195-.08.084.012.02-.04.085.093.134.1.003-.052-.104.12-.026-.147-.053-.023.072.002.125l-.066-.04.043.112-.102-.058.09.08c.01.09-.183-.1-.192-.022l-.048-.094-.082.027.24.215c.02.058-.11-.05-.04.04l-.08-.112-.192-.02.192.162-.143-.042.13.136c-.07-.02-.192-.022-.3-.045l-.122-.143-.02.03c-.096-.117-.105-.04-.218-.145l.015.1c.242.072.234.247.43.35-.002.114-.482-.24-.248.032l.15.063c-.052.038.165.156.05.166-.05-.093-.22-.073-.29-.21l.06-.025-.217-.074c-.002.045-.027.09.073.147.106.066.02-.057.114.033-.004.088-.172-.006-.002.142l.2.06.015.075-.065-.056c-.1.044.114.106.048.167l-.16-.057c-.11-.096.12-.07-.083-.185l-.028.134-.018-.06c-.018.012-.287-.14-.18.026l.137.103.014.216c-.137-.104-.07.076-.182-.072.1.03.162-.084.043-.2-.187-.08.062-.043-.1-.17-.042.058-.207-.053-.322-.114l.028.08c.098.072.11.05.217.117-.072.05-.057.15.02.254l-.156-.116c-.02.1-.09.176-.172.232.2.06-.016.11.146.167l.268.097-.115-.06c.07.09-.18-.046-.056.08-.007-.108-.195-.147-.317-.245.04.1-.092-.063-.126-.01.04.1.054.2.045.277-.174-.007-.124.186-.162.254l-.27-.107c-.026.045.18.07.07.09l-.025-.024c.02.043-.178.054.022.21l-.147-.123.018.06-.13-.093c-.138-.032-.037.095-.062.142l.113.033c.026.123-.1.11-.113.205l-.092-.063.028.08-.107.004-.155-.26c.075.006.09.107.194.147.092.035.11-.047.027-.116l.013.076c-.136-.076-.105-.11-.18-.187l-.016.04-.014-.147.12.072c-.112-.078-.12-.143-.053-.176.156.046-.02-.157.058-.196.1.1.17.192.193.26l.11-.047-.217-.26.087.054-.077-.2c.107-.073.175-.177.235-.247l.087.052c-.154-.16.025-.187-.018-.298.146-.045.058-.266.236-.222.048-.216.082-.41.23-.57l.104.11c-.07-.09.086.026.088-.018-.123-.027-.1-.127-.16-.198.146-.02.11-.19.068-.316l.087.053c-.113-.176.083-.17.167-.244l.14.016c-.106-.14-.08-.157-.12-.284l.21-.133c-.065-.32.188-.44.202-.72l.11.05c-.087-.335.264-.45.264-.69l.16.127c.088-.02.033-.15-.096-.215.086-.02.002-.186.164-.128l-.03-.178c.136-.067.147-.116.18-.24l-.026.02.13.065c-.022-.068.138-.11-.09-.205.187-.032.067-.316.295-.318l-.084-.098c.06-.096.238-.123.193-.262l.108.05-.085-.095c-.003-.223.31-.244.375-.402.055-.32.278-.546.416-.797l.04.03c-.105-.183.28-.086.088-.303l.135.005c-.07-.137.22-.11.14-.295l.007.037c.15-.035.08-.197.227-.242l.052.076c.104.014-.113-.2.098-.095l-.092-.062c.217-.166.24-.478.34-.73.223-.085.34.204.274-.02l-.028-.03c-.023-.085.27.066.188-.035-.13-.064-.053-.066-.125-.115.143-.047.265.004.223-.133l.06.047c-.12-.208.044-.25-.114-.463.288-.526.484-1.083.777-1.588.354-.458.567-.993.996-1.412.242-.007.243-.02.257-.188l.056.043c-.134-.096.045-.098-.08-.195.146-.164.216-.355.336-.543l.11.085-.063-.093.043.017-.116-.11c.186-.547.76-.83 1.025-1.312.127-.072.176-.262.225-.398.41-.232.765-.453.867-.895-.002-.006.324.27.31.472zM342.857 444.303c.076.033.14.016.21.108l-.21-.107z"/><path d="M344.273 443.67l.05.008.005.053zM344.495 443.418l.053.176-.053-.176zM344.916 443.32l.07.066-.07-.065zM344.79 443.213l.097.002c-.054-.033 0 .072-.098-.002zM345.333 442.764l.048-.048-.047.048zM345.41 442.44l.013-.022.07.064zM348.263 437.504l.01.05-.056-.045zM349.617 435.408l.082.02-.083-.02zM350.043 434.082l-.004.01-.124-.084zM261.59 444.5c.067.038.083-.103.073.005l-.073-.004zM250.94 429.124c.44-.035.294.428.634.49l-.097.138c.38.025.45.435.428.803l-.06.02.208.077-.092.058c.106-.055.106.056.192.025l-.127.15.13-.048c.314-.107.11.198.318.207l-.075.043c.276.056.393.285.582.432l-.156.103c.122-.07.192-.034.25 0-.104.105.17.01.145.114l-.03.014c.155-.043-.028.116.147.046l-.075.094c.182-.1-.043.124.067.1l.033-.025.043.094-.018.016c.096.043.032.15.162.058-.086.1-.098-.038-.222.11.305.146.453.414.625.656l-.082.134.17.05-.053.08.153.037-.14.07c.13-.03.154.036.22.063l-.087.036c.153-.03.043.113.15.11l-.088.034c-.04.14.174-.088.165.016l-.093.046c.18-.035.204.095.293.123l-.033.02c.064.053.07.152.18.184l-.113.17c.15-.107.146.077.29-.085l.104.215-.213.12-.066.1-.077.015.126.09c.124-.02.328-.097.4-.036l-.196.132.364-.1-.05.1.114-.045c-.01.022.11.078-.03.193l-.095.047.12.056-.02.015c0 .047.127.046.187-.045l-.063.01c.103-.04.165-.004.198.04l-.12.056c.16-.02.243.02.34.055l-.117.028c-.036.158.27.085.176.26l.077-.063-.026.12.082.038-.05.008c.08.003.284.098.26.252l.197-.022-.1.058-.02.125c.146-.035-.22-.107-.088-.107-.068.07.208-.02.07.057.034.04.17.008.11.11l-.125.085.123.014.06.003c.093-.062.026.063.112-.03-.07.06.108.055-.048.154l-.125.075.223-.062-.048.047c.185-.123.028.073.19.006-.023.1.093.143-.003.248l.17.073-.078.018.07.05-.106.213.235-.117c-.152.164.2.037.07.2l-.152.066c-.153.164.187-.016.144.106l.14-.12c-.074.093.15.03-.008.13.068-.016.002.108.143 0-.052.188.247.194.03.44l.104-.01-.032-.04.077-.028c-.01.055-.004.087-.146.142-.042.134.297-.1.303.028l-.053.08.138-.022c.017.075-.114.13-.215.202l.146.02-.103.128c.074-.093.08-.018.115-.02l-.036.002.038.062.065-.135h.13c-.106.063-.037.1-.03.132l.113-.022-.064.08-.022-.04c-.026.045-.118.106-.025.1.07-.007.192-.147.167-.047l-.12.043-.017.088.093-.06-.04.034c.107-.052.084.06.2-.006l-.017.13-.012.002.11.065-.02.013.114.034c-.04.09-.334.255-.188.22l.26-.107c-.008.12.2.103.11.272l.1-.03c.04.137.273.16.156.375l-.145.1c.1-.03-.062.09.085.002l.134-.14c.09.035.162.137.11.23l.096-.053c-.135.088-.12.15-.048.156l.084-.05-.065.08c.037-.003.18-.1.13-.01l-.08.07c.093-.007.242-.03.204.06l-.093.115.13-.064c-.022.12 0 .173-.084.267.333-.05.467.122.55.277l-.063.038.096.003c-.067.028-.105.116-.196.136-.025.1.153-.002.206.015.083-.05-.07.008.034-.056.033-.014-.008.12.117.045l-.185.122.08-.007c-.11.14-.313.08-.455.243l.04.02c-.103.115-.197.016-.186.123l.307-.166.35-.083-.146.035c-.07.103.104.034.092.09l.2-.114-.104.117.18-.102c.168-.09-.005.087.137.032-.098.094-.293.12-.307.22.1-.084.195-.027.33-.17l-.172.135c-.04.08.25-.054.048.104l.116-.064-.09.127c.02.03.213-.01.048.103.023-.002.063.07.158-.035.04-.09-.116.01.02-.12-.104.116.058.05.117.044l-.06.048.12.002-.09.072.106-.053-.092.17-.103.01-.005.087c.097-.05.213-.106.29-.144.06.006-.09.084.022.053l-.134.032-.093.17.224-.116-.09.115.172-.068c-.046.058-.092.17-.154.26l-.177.06.02.03c-.144.045-.076.082-.215.147l.1.024c.157-.196.316-.123.485-.267.105.045-.406.357-.064.243l.115-.118c.016.063.207-.093.172.018-.105.01-.15.176-.303.188l-.004-.064-.15.174c.04.02.073.06.164-.014.103-.073-.044-.04.074-.093.08.036-.07.157.13.055l.13-.163.075.015-.076.04c0 .106.14-.066.17.017l-.112.128c-.13.065-.02-.14-.202.007l.113.077-.06-.006c.004.02-.237.214-.043.176l.146-.088.206.07c-.146.087.045.092-.134.14.065-.08-.018-.183-.17-.115-.145.143-.016-.073-.194.028.038.062-.127.172-.227.256l.083.005c.105-.064.09-.085.19-.158.02.085.12.11.243.077l-.167.1c.084.058.13.15.15.246.13-.162.098.056.21-.07l.19-.212-.1.084c.112-.03-.11.15.054.082-.103-.034-.21.126-.347.202.108 0-.092.062-.057.112a.607.607 0 0 1 .275.063c-.07.157.126.184.175.244l-.202.213c.033.04.134-.142.112-.032l-.033.016c.047-.005-.018.185.204.058l-.17.09.06.007-.134.087c-.08.115.075.07.11.11l.072-.093c.124.02.066.135.147.182l-.09.062.082.004c-.095.052-.125.13-.036.1l-.298.048.21-.126c.066-.07-.004-.118-.1-.067l.075.016c-.12.097-.142.055-.24.096l.03.028-.14-.042.112-.085c-.114.075-.176.06-.182-.016.102-.128-.152-.04-.16-.127a.794.794 0 0 1 .315-.08l-.003-.12c-.097.04-.235.118-.322.104l.082-.06-.214-.004c-.028-.127-.1-.23-.14-.312l.08-.062c-.207.083-.164-.094-.282-.095.012-.152-.226-.154-.117-.303-.18-.126-.348-.23-.44-.428l.142-.055c-.11.03.055-.068.016-.087-.072.104-.155.045-.245.075.04-.145-.133-.173-.267-.184l.08-.06c-.204.038-.126-.142-.162-.247l.067-.124c-.166.047-.174.016-.307.005l-.044-.245c-.323-.06-.34-.34-.59-.457l.086-.083c-.343-.047-.32-.416-.542-.506l.178-.1c.016-.09-.126-.088-.235.008.015-.087-.17-.072-.057-.2l-.175-.04c-.01-.15-.053-.18-.153-.256l.007.03.108-.096c-.072-.005-.05-.168-.224.01.04-.19-.268-.184-.185-.396l-.122.042c-.068-.092-.025-.267-.17-.277l.088-.083-.122.043c-.208-.08-.11-.38-.232-.498-.276-.172-.4-.464-.583-.686l.04-.026c-.207.028.03-.294-.245-.195l.055-.124c-.152.013-.02-.246-.22-.24l.036.007c.024-.152-.153-.148-.14-.3l.09-.02c.052-.09-.23.03-.05-.125l-.094.062c-.072-.264-.353-.402-.55-.59.005-.238.318-.237.088-.26l-.04.014c-.088-.01.162-.226.038-.188-.11.097-.082.024-.154.074.01-.15.103-.244-.04-.257l.066-.038c-.238.034-.216-.135-.47-.068-.38-.464-.822-.855-1.18-1.316-.292-.5-.707-.897-.935-1.453.085-.227.075-.232-.078-.31l.06-.035c-.138.087-.072-.078-.21 0-.098-.195-.25-.333-.377-.515l.122-.072-.11.024.032-.033-.146.065c-.437-.377-.482-1.017-.83-1.442-.02-.146-.176-.262-.285-.358-.06-.47-.133-.88-.502-1.14.01-.01.39-.206.57-.118zM261.528 444.44c.06-.06.067-.124.18-.155l-.18.156z"/><path d="M261.474 442.892l.026-.046.05.017zM261.323 442.59l.182.018-.182-.017zM261.392 442.164l.086-.04-.086.04zM261.244 442.24l.04-.088c-.053.036.065.027-.04.09zM261.032 441.568l-.026-.063c-.037.047.12.012.026.063zM260.762 441.375l-.017-.02.087-.04zM257.26 436.877l.048.007-.062.037zM255.826 434.834l.048-.068-.048.068zM254.757 433.94l.007.008-.124.082zM271.283 511.183l.045-.057-.045.057zM252.58 511.19c.22-.382.52.002.763-.242l.058.157c.238-.297.614-.122.905.105l-.017.06.18-.127-.004.11c.014-.12.106-.056.13-.145l.052.19.033-.134c.09-.32.225.02.352-.145l-.008.085c.203-.195.458-.16.687-.232l-.002.188c.01-.14.08-.177.142-.205.028.146.104-.134.176-.054l-.006.033c.052-.152.08.088.12-.095l.035.114c.022-.206.077.105.12 0v-.04l.1.017.004.023c.09-.055.142.06.14-.1.03.127-.088.058-.038.244.294-.167.6-.136.896-.14l.063.144.14-.11.034.09.118-.105-.023.154c.05-.126.117-.107.176-.147l-.02.093c.064-.142.12.03.176-.06l-.02.092c.092.112.025-.193.106-.127l-.016.104c.074-.168.194-.113.27-.17l-.004.037.254-.042.076.19c-.004-.185.146-.076.094-.286l.238.036-.024.243.046.112c-.006.076-.047-.025-.032.07l.146-.052c.056-.114.107-.326.198-.35l-.004.235.126-.355.05.098.03-.12c.012.022.126-.046.14.136l-.015.104.116-.067v.025c.04.027.11-.078.07-.18l-.03.058c.027-.106.092-.137.148-.14l-.024.13c.075-.143.155-.188.24-.25l-.044.113c.11.12.223-.172.313.004l-.008-.1.084.09.077-.046-.02.045c.047-.064.242-.18.354-.072l.094-.174-.01.114c.025.068.088-.01.092.088.055-.14-.212.12-.138.01.02.097.103-.182.088-.025.052-.003.102-.133.152-.025v.15l.08-.093.038-.048c.002-.11.066.015.038-.11.01.093.107-.056.1.13l-.01.145.077-.22.01.066c.005-.222.077.02.114-.153.068.076.17.006.204.145l.156-.1-.03.074.08-.03.115.21.038-.26c.048.22.144-.144.203.056l-.03.163c.047.22.092-.162.168-.057l-.02-.183c.034.113.11-.105.104.08.025-.065.09.06.08-.118.125.15.3-.092.378.227.018-.03.062 0 .053-.092-.03-.1-.042.07-.053.003l.02-.077c.04.04.07.053.035.2.086.11.087-.302.196-.233l.036.09.06-.126c.07.028.04.167.043.292.037-.022.083-.017.1-.11l.046.157c-.034-.113.03-.075.048-.105l-.017.03.072.004-.074-.13.075-.107c-.008.123.062.087.09.1l.05-.105.03.1-.047-.006.067.076.057-.164-.034.123.063.062.003-.11.007.052c.018-.117.096-.036.11-.168l.096.09-.005.01.118-.055v.025l.092-.074c.052.084.02.42.075.28l.06-.275c.092.075.197-.107.285.065l.032-.1c.137.043.288-.134.398.085v.175c.03-.1.04.103.05-.068-.004-.1 0-.15-.04-.19.082-.054.206-.055.25.04l.013-.108c-.005.16.055.185.1.128l.006-.098.03.1c.016-.03.017-.205.063-.11l.014.103.164-.134.043.143.02-.143c.087.086.143.096.17.22.15-.303.368-.315.542-.295l-.004.073.058-.076v.237l.13-.16c.005-.096-.036.063-.028-.06.007-.035.093.074.103-.07l-.004.222.04-.07c.05.17-.113.304-.06.513l.04-.022c.036.152-.1.173-.005.224l.038-.347c.085-.04.038-.347.13-.336.025.086-.074.02-.055.14.044.118.086-.064.125-.023l.02-.228.037.152.018-.205c.023-.19.07.05.104-.097.022.134-.066.31.007.377-.013-.13.088-.177.048-.367l.012.218c.042.08.098-.235.113.02l.013-.13.053.145c.035.002.114-.18.112.02.01-.02.094-.012.06-.15-.05-.083-.057.102-.086-.084.037.152.074-.02.103-.07l.004.077.07-.098.007.114.02-.117.086.172-.052.09.07.054.046-.32c.04-.046.018.122.056.012l-.05.13.087.173.03-.25.044.14.042-.18c.02.07.086.17.126.274l-.052.18h.036c-.045.145.023.11 0 .262l.076-.067c-.072-.243.078-.333.057-.554.097-.06.063.537.163.19l-.03-.16c.06.022.04-.223.11-.132-.05.09.06.224-.017.355l-.056-.035.058.222c.038-.02.09-.025.082-.14-.002-.128-.058.013-.034-.115.075-.045.088.147.12-.076l-.06-.2.054-.053-.01.084.11-.13.042.165c-.02.144-.125-.063-.11.17l.128-.05-.04.048c.02.008.043.316.122.135l.01-.17.175-.13c-.01.17.104.017.04.19-.03-.1-.16-.09-.19.073.034.2-.07-.028-.09.176.073.005.07.203.083.333l.05-.066c.01-.12-.018-.12-.02-.245.08.032.158-.036.2-.155l-.01.194a.39.39 0 0 1 .288.016c-.06-.2.102-.047.06-.213l-.064-.276.012.13c.038-.108.06.176.098.004-.087.064-.016.243-.03.4l.06.11.207-.19c.088.147.222.002.3-.005l.06.285.037-.11-.007.036c.023-.04.142.12.164-.134l-.023.19.04-.046-.005.16c.047.132.1-.02.15-.027l-.033-.113.234-.018v.11l.05-.065c-.012.107.035.177.062.087l-.13.27c-.038-.063.04-.133.015-.242-.02-.095-.1-.065-.112.042l.055-.053c.01.155-.035.15-.058.253l.042-.008-.115.09-.007-.14c-.003.137-.053.18-.118.142-.046-.157-.12.102-.195.06a.788.788 0 0 1 .113-.306l-.1-.064c-.022.104-.038.26-.098.323l-.004-.103-.124.175c-.12-.05-.245-.05-.337-.062l-.005-.1c-.05.216-.17.08-.24.177-.117-.098-.253.098-.314-.076-.206.08-.387.156-.602.12l.036-.147c-.038.108-.025-.085-.063-.063.045.117-.05.153-.077.243-.096-.114-.218.012-.303.115l-.003-.102c-.085.19-.188.024-.295-.006l-.064-.126c-.057.164-.087.153-.17.256l-.227-.104c-.23.23-.47.086-.71.226l-.02-.12c-.233.257-.523.027-.723.158l.018-.204c-.063-.063-.143.055-.126.2-.064-.064-.158.1-.2-.068l-.13.122c-.13-.077-.178-.06-.3-.02l.03.012-.016-.145c-.045.057-.167-.054-.12.188-.13-.14-.303.116-.43-.072l-.034.124c-.114.003-.234-.132-.325-.02l-.018-.118-.034.123c-.184.125-.375-.126-.542-.094-.297.13-.608.065-.894.09l.003-.05c-.096.187-.226-.19-.3.09-.024-.045-.087-.02-.07-.114-.077.132-.215-.123-.324.045l.027-.026c-.112-.106-.21.04-.327-.056l.037-.085c-.045-.094-.106.206-.132-.03v.112c-.26-.09-.533.062-.8.116-.192-.14-.014-.395-.164-.22l-.01.043c-.06.065-.094-.263-.134-.14.018.145-.026.08-.027.17-.118-.094-.142-.225-.234-.114l.008-.077c-.107.216-.234.102-.324.35-.598.048-1.17.188-1.754.22-.577-.045-1.14.07-1.727-.06-.138-.2-.148-.193-.3-.11l.006-.07c-.008.163-.107.015-.12.172-.218-.03-.417.016-.64.02l.01-.143-.043.105-.007-.046-.03.16c-.56.144-1.11-.184-1.66-.14-.13-.068-.314-.005-.456.03-.42-.218-.8-.392-1.224-.236 0 0 .054-.424.23-.524zM271.2 511.2c-.015-.083-.064-.127-.026-.237l.026.236z"/><path d="M269.895 510.362l-.023-.047.043-.032zM269.562 510.315l.117-.14-.118.14zM269.25 510.016l.016-.094-.016.094zM269.23 510.182l-.052-.082c0 .062.06-.04.05.082zM268.555 509.974l-.066-.015c.015.056.076-.094.065.014zM268.242 510.085l-.026.002.017-.094zM262.55 510.405l.034-.035-.005.072zM260.055 510.422l-.03-.08.03.08zM258.712 510.793l.01-.002-.003.15zM352.474 511.23l.046-.058-.046.057zM333.77 511.237c.223-.382.52.002.764-.242l.06.157c.235-.297.612-.122.903.105l-.018.06.18-.127-.005.11c.014-.12.105-.056.13-.145l.052.19.033-.134c.092-.32.227.022.353-.144l-.01.086c.204-.195.46-.16.69-.232l-.005.188c.01-.142.08-.178.143-.206.028.146.105-.134.177-.054l-.006.032c.054-.152.08.088.122-.095l.034.114c.022-.207.077.104.12 0v-.042l.1.018.004.024c.09-.055.143.06.14-.1.032.127-.087.058-.036.244.294-.167.598-.136.896-.14l.063.144.14-.112.034.09.117-.104-.022.154c.05-.125.118-.106.177-.146l-.022.093c.065-.142.12.03.177-.06l-.02.092c.093.112.025-.193.106-.127l-.015.103c.073-.167.193-.112.268-.17l-.002.038.255-.043.076.19c-.003-.185.146-.076.095-.286l.237.035-.024.243.047.11c-.006.077-.047-.024-.032.07l.146-.05c.055-.115.105-.327.197-.352l-.004.236.126-.355.05.098.03-.12c.012.022.126-.046.14.136l-.015.105.114-.067v.024c.037.027.11-.078.068-.18l-.028.058c.026-.106.09-.137.147-.14l-.024.13c.075-.143.155-.188.24-.25l-.045.113c.108.12.223-.172.313.004l-.007-.1.084.09.078-.046-.02.046c.048-.063.24-.178.354-.07l.093-.175-.01.115c.024.068.088-.01.092.088.055-.14-.212.12-.138.01.02.097.103-.182.088-.025.052-.004.102-.134.15-.026l.002.15.08-.093.038-.05c.002-.11.065.016.037-.108.01.092.107-.057.1.128l-.008.146.076-.22.01.067c.005-.222.077.02.114-.153.067.076.17.006.202.145l.156-.1-.03.074.08-.03.115.208.038-.26c.047.22.143-.143.203.057l-.03.163c.046.22.092-.163.168-.058l-.02-.183c.034.113.11-.105.104.08.024-.065.09.06.08-.118.124.15.3-.093.378.226.018-.03.063 0 .053-.09-.028-.1-.04.07-.052.002l.02-.078c.04.04.07.053.034.2.086.11.087-.302.195-.233l.036.09.06-.126c.07.03.04.168.044.293.037-.022.083-.017.1-.11l.047.157c-.034-.113.03-.075.048-.105l-.018.03.072.004-.074-.13.074-.108c-.008.123.063.087.092.1l.05-.105.028.1-.046-.006.067.077.057-.164-.033.123.064.063.002-.112.008.053c.018-.116.096-.035.11-.167l.096.09-.005.01.116-.055v.024l.092-.074c.053.083.02.42.076.28l.06-.276c.093.075.197-.107.284.065l.032-.1c.138.043.288-.134.397.085v.175c.032-.1.04.103.052-.068-.004-.102 0-.15-.04-.19.08-.055.206-.056.25.038l.014-.107c-.005.16.055.186.1.13l.007-.1.03.1c.017-.03.018-.204.063-.11l.014.104.164-.134.043.143.02-.143c.087.086.143.096.172.22.147-.303.365-.315.54-.295l-.005.073.057-.077v.238l.13-.16c.006-.097-.035.062-.027-.06.007-.036.093.073.103-.072l-.005.223.04-.07c.052.17-.11.303-.058.512l.037-.022c.037.152-.1.173-.004.224l.038-.347c.085-.04.038-.347.13-.336.025.087-.073.022-.055.142.045.117.087-.065.126-.024l.02-.23.037.153.02-.204c.02-.19.068.052.103-.096.022.134-.066.31.007.377-.013-.13.09-.177.05-.367l.012.218c.04.08.098-.236.112.02l.013-.132.053.146c.037.002.115-.18.113.02.012-.02.094-.012.06-.15-.05-.083-.057.102-.086-.084.037.15.073-.02.103-.07l.006.076.067-.098.008.115.018-.116.088.172-.052.09.068.055.047-.318c.04-.047.02.12.057.01l-.05.13.087.174.03-.25.044.142.044-.182c.02.07.087.172.127.275l-.052.18.035.002c-.045.144.023.11 0 .26l.076-.066c-.073-.242.077-.332.056-.553.096-.06.063.537.162.19l-.03-.16c.06.022.04-.223.112-.132-.053.092.058.225-.018.356l-.055-.034.058.222c.038-.02.09-.025.08-.14 0-.128-.057.013-.032-.115.074-.046.088.146.118-.077l-.06-.2.056-.053-.01.084.11-.13.042.165c-.02.143-.125-.064-.11.17l.128-.05-.04.047c.022.008.043.316.122.135l.01-.17.175-.13c-.01.17.103.017.04.19-.03-.1-.16-.09-.19.073.032.2-.07-.028-.09.176.072.006.07.204.082.334l.05-.066c.01-.122-.018-.12-.02-.246.08.032.158-.036.2-.155l-.01.194a.388.388 0 0 1 .287.017c-.06-.2.1-.047.06-.213l-.064-.276.012.13c.04-.11.062.175.1.003-.088.065-.017.244-.03.4l.06.11.207-.19c.09.148.223.003.3-.004l.06.286.04-.11-.01.036c.024-.042.144.12.165-.135l-.023.19.038-.046-.005.16c.048.132.1-.02.15-.027l-.032-.113.234-.018-.002.11.05-.066c-.012.107.036.177.063.087l-.13.272c-.038-.064.038-.134.015-.243-.02-.096-.1-.066-.11.04l.054-.052c.01.154-.035.148-.058.252l.042-.008-.115.09-.006-.14c-.004.137-.053.18-.117.142-.047-.157-.12.102-.195.06a.788.788 0 0 1 .113-.306l-.1-.065c-.022.104-.038.26-.1.323l-.003-.102-.125.175c-.12-.05-.245-.05-.337-.063l-.004-.1c-.052.216-.172.08-.24.177-.118-.098-.255.098-.315-.076-.207.078-.388.155-.603.12l.036-.148c-.04.108-.025-.085-.063-.063.044.117-.052.153-.077.243-.097-.114-.22.012-.303.115l-.004-.102c-.084.19-.187.024-.294-.006l-.064-.126c-.057.165-.087.154-.17.257l-.227-.104c-.232.23-.47.086-.713.226l-.018-.12c-.234.256-.524.026-.725.157l.018-.204c-.063-.063-.144.055-.126.2-.063-.064-.157.1-.197-.068l-.133.122c-.13-.077-.177-.06-.3-.02l.032.012-.017-.146c-.046.057-.167-.054-.12.188-.13-.14-.303.116-.43-.072l-.035.124c-.113.003-.234-.132-.324-.02l-.018-.118-.034.124c-.185.125-.374-.126-.542-.094-.298.13-.61.066-.895.09v-.05c-.093.188-.224-.19-.3.092-.02-.046-.086-.02-.07-.115-.074.132-.213-.123-.322.045l.027-.027c-.11-.105-.21.042-.327-.055l.036-.085c-.045-.094-.105.206-.132-.03l-.002.112c-.258-.09-.532.062-.8.116-.19-.14-.013-.396-.163-.22l-.01.042c-.06.065-.094-.263-.134-.14.018.145-.026.08-.027.17-.117-.094-.142-.225-.234-.114l.008-.076c-.107.216-.234.102-.324.35-.6.048-1.172.188-1.754.22-.578-.045-1.142.07-1.728-.06-.138-.2-.148-.193-.3-.11l.006-.07c-.006.163-.105.015-.12.172-.216-.03-.415.016-.638.02l.01-.143-.043.104-.008-.046-.03.158c-.56.145-1.11-.183-1.658-.14-.13-.067-.314-.004-.457.03-.42-.217-.8-.39-1.223-.235-.003 0 .05-.423.226-.523zM352.39 511.246c-.015-.082-.063-.126-.025-.236l.026.236z"/><path d="M351.085 510.41l-.022-.048.042-.032zM350.752 510.362l.117-.14-.118.14zM350.44 510.063l.017-.094-.017.093zM350.42 510.23l-.053-.083c.002.062.06-.04.052.082zM349.745 510.02l-.066-.014c.015.057.077-.093.065.015zM349.433 510.132l-.027.002.018-.094zM343.74 510.452l.034-.035-.004.072zM341.246 510.47l-.03-.08.03.08zM339.902 510.84l.01-.002-.002.15z"/></svg>