<svg xmlns="http://www.w3.org/2000/svg" width="595.28" height="841.89" viewBox="0 0 595.28 841.89"><path fill="#DFE0E1" d="M299.52 341.703s16.41 27.038 20.848 67.708c4.44 40.67 7.2 113.435 7.2 113.435h24.392s4.865-61.99 1.668-129.934c-3.197-67.944-1.668-116.45-1.668-116.45H248.91s-.783 37.942-3.283 104.45c-2.5 66.51.232 142.5.232 142.5h26.22s4.655-71.714 8.465-115.657c4.842-55.843 16.526-66.66 16.526-66.66h7.327"/><path d="M297.345 340.432c-1.895-3.278.79 1.9-1.314-2.105.367.39.81.976 1.315 2.105z"/><path d="M290.004 342.026c-2.537 5.564-4.724 12.227-6.55 19.154-1.81 6.926-3.26 14.107-3.974 20.706-.203 1.54-.353-.462-.783 3.024-.282 3.208-.658 6.866-1.06 10.797-.32 3.94-.828 8.135-1.146 12.438-.726 8.598-1.61 17.534-2.433 25.323l-.045-.955c-.313 2.968-.2 6.632-.494 9.778-.08.022-.034-1.016-.197-.293.177.812-.323 5.706-.25 7.056-.19 1.24-.364 1.1-.59 2.704l.13 1.827c.256 5.06-.973 12.176-1.164 19.044-.037-.333-.034-1.014-.137-.475-.47 11.013-1.395 24.765-2.11 37.063-.063-.495-.204-.96-.36-.248.242.625.057 4.428-.112 7.723-.092.346-.146.843-.184 1.453-.038.642-.06 1.442-.086 2.364l-3.1.122c-1.012.027-2.057.035-3.08-.007l.328-.065c-2.863.305-4.247-.176-6.568.19l-1.814-.23c-1.26.41-4.142-.21-6.506-.003l.076.084c-2.276.1-3.25-.106-5.712-.037l-.18-.048-.13.002-.028-.1-.012-.245c-.008-.164-.016-.326-.022-.485l-.038-.938c-.02-.565-.037-1.096-.053-1.588l-.062-2.394c-.035-1.295-.078-1.97-.236-1.906.204-1.704.258 4.69.55 2.015-.44-7.96-.614-16.05-.815-24.153-.164-8.104-.4-16.22-.38-24.242.12-1.824.155-2.984.274-3.395-.07-1.6-.083-6.034-.253-7.49.008.536.158-1.037.172-1.885.106-2.92-.367-3.186-.238-6.39.09 1.274.196 1.704.313 1.278-.26-2.734-.237-6.388-.332-9.62.057.502.092 1.284.19 1.16-.298-3.533.033-6.444-.16-9.543l.19 1.16c.225-4.983-.44-1.472-.227-5.784.037 1.036.117.67.188.86-.255-4.023-.013-10.528-.044-14.546.02.24.07.178.07.178.047-4.373.245-8.937.195-13.75.118-1.746.44.584.466-4.042-.374.158.007-7.858-.468-5.142.146-3.95.395-10.2.346-12.834.087 1.78.51-1.908.446 1.374l.298-2.473c.14.374-.132 2.553.085 1.772.037-1.65.04-6.45.146-7.918-.132-3.053-.467-5.87-.36-10.805.072 2.325.45-1.307.466.275l-.496-6.91c.034-1.644.305-.348.282-2.726-.103.122-.13-.915-.188-1.642.063-.614.123-6.826.51-7.53.166-.718-.006 2.678.18.863.092-3.034-.028-3.17.06-6.205l.052-.056c.117-2.002.03-5.908-.24-3.736-.056 1.394.236-.52.065 1.537-.168-1.417-.116-4.942-.024-7.976.027 1.038.128.915.218 1.335-.158-4.085-.113-8.405-.09-12.958-.172-.075.263 1.705.15 2.373.424-5.83.036-12.055.54-16.9.007.796-.26.424-.21.37.11-2.808.36-2.677.323-4.51.154-.175.026-2.3.04-4.186-.076-.975.088-.49.053 1.154-.02-1.314-.007-4.6.064-8.314.05-1.857.102-3.822.15-5.7.044-1.09.087-2.154.126-3.166l.042-.945.02-.46.012-.225.01-.108.113.002 1.747.035c-.052-.024.25-.06.79-.097l1.578-.118c1.12-.076 2.432-.14 3.128-.133l-.545.228c1.272.137 4.678-.02 4.91.176 2.982-.278-11.48.237-7.446.022 1.04.19 5.615-.364 4.746-.053 2.806-.008 5.522-.266 8.2-.052-.78-.036-2.275.317-.01.302 3.982-.04 1.133-.11 4.363-.186l2.028-.094c.137-.222 3.563.03 2.082-.22.49.185 5.795-.112 5.383.258l-.553.29c1.722-.02 2.82-.306 4.176-.435.225.027.68.085.592.133.275-.445 4.114.037 6.16-.307 3.615.155 9.185.015 10.89.293 2.776-.135 5.313-.295 8.48-.2-.63.042-1.497.055-1.675.15 1.99.13 2.48.014 4.297-.058-.406.066 3.98.26 6.19.418 2.76-.133 1.813-.373 2.09-.52 2.524.438 7.794-.284 10.954.114-.955.06-4.025.216-1.732.326 2.525.438 5.09-.324 9.16-.113l-1-.365c1.813.226 5.99-.21 5.574.16 1.36-.13 4.797.12 4.346-.234a99.13 99.13 0 0 0 2.625.08l2.053.02 1.082.007H349.27l.023.11-.014.55-.14 6.686c-.096 3.73-.107 7.15-.457 9.2.053.955-.025 3.345.16 2.857.21-1.588-.125-2.223.014-2.813.006.858.102 1.047.15 1.137-.098 2.076-.135 3.71-.416 1.744-.253 4.62.57 4.77.388 10.645-.145-.267-.203.18-.193 1.9 0 0 .06.816.115 1.632l.14 1.632c-.015 3.8-.31 2.16-.558 2.253.066 2.03.082 4.52.28 5.44l-.286 2.468c.205-1.8.168 1.67.242 2.626l-.074-.956c-.1.377-.008 2.724.037 3.91.15-.278.187-2.678.216-3.988.123 1.04.115 2.654.26 4.027-.25-.452-.135 3.313-.143 4.927-.03 1.855.244 2.085.24 2.627-.125.05.014 3.026-.18 1.584-.05-.63.107-1.445-.018-2.49-.08 1.225-.303 1.086-.11 3.616.142 1.907.476-.498.362 3.125-.072-.952-.172-1.124-.268-1.858l-.09 3.392.226.14c-.05.457-.074.142-.102.355.246 1.003.12 5.175.44 5.936.083 1.712-.028 3.605 0 5.238l-.028-.312c-.063 1.998.115 4.65.322 6.32l-.05-.087c.02 1.088.142 3.664.32 5.023-.073 2.762-.81.955-.425 3.992.104 2.795.56 4.367.662 3.236.02 5.03.58 10.712.396 15.383.114.718.155.26.26 1.746.165 7.37.792 15.585.554 21.476-.166-2.14-.23-.138-.354-.088.26 1.76-.135 2.13.23 2.755.194-.183.298-.008.31-2.09.127 2.2.248 4.977.324 7.51.023 2.532-.006 4.82-.086 6.047.08-1.226.15-.28.22.685-.32-.317-.34 2.937-.2 5.393l.2.348-.185 1.6c.07.946.42 1.042.256 3.484-.075.126-.15.27-.2.716.182 2.547.514 6.132.293 8.895l-.307 2.26c.02 1.18.172 3.166.275 1.09-.216 4.71-.267 7.75-.528 9.24.13 2.03.23 4.29.28 6.684.024 2.394.017 4.922-.013 7.492-.083 5.14-.155 10.445-.4 15.16l-.136-.284c-.24 2.527.203 1.323.03 3.09-.106-.827-.382 1.917-.474-.08-.3 3.615.064 4.68.035 7.04.178.365-.047-1.9.18-1.435.047.407-.342 5.006-.1 5.584-.162.902-.34.187-.43-.31l.02 2.222c-.472 2.688-.29-6.196-.85-3.378l-.06 2.044c-.4 1.928-.068-5.407-.432-.3.025 2.228.346 4.15.578 2.177-.163 4.624.58 2.177.292 7.146-.242 1.35.172-3.98-.12-3.038-.362 2.33-.104 4.71-.33 6.784.255-2.305.425-.332.382 1.167-.3 2.522-.17-1.657-.428 1.92.13.602.045 3.905.344 1.065.145.66.068 1.59-.047 2.605l-.24 2.81c.324 1.38-1.11.852-1.885 1.042-1.137-.134.523-.29 1.346-.427l.143-.033-.012-.18c-.012-.11-.02-.206-.03-.28-.02-.145-.046-.203-.08-.135-.015.034-.034.1-.054.202l-.036.177-.273-.02c-.403-.022-.968-.042-1.73-.06.265.065-.058.12-.688.17l-.506.038-.365.037-.78.076c-1.033.104-1.883.223-.842.414-1.545-.075-1.705-.277-.58-.437-2.207-.158-5.35.472-6.074-.04l-.756.264c-.69-.085-1.68-.15-2.805-.292-1.945-.005-6.258.357-6.08-.04l-2.922.06c-1.595.036-2.856.1-1.466.238.605.016 1.145.028 1.63.04l1.095.005c.448-.013.808-.024 1.126-.035.64-.024 1.127-.024 1.893.162-.974-.15-1.966-.142-2.915-.08l-.354.023-.585.028-1.27.062-1.254.06c-.208.01-.41.02-.614.026-.098.002-.205.014-.297.007l-.022-.277.13-.618c-.048-.806-.126-2.133-.198-3.386-.05-.737-.113-1.43-.21-1.72.12.72.208.34.214-.418l-.275-.982c-.278-3.844.372-.923.15-4.665l.298 2.837c-.064-.62.102-1.906-.047-3.695-.24-.69-.56-1.985-.755-2.576-.195-2.105.195-.957-.125-3.022l.39 2.708c.09.408.263-1.852.12-4.67-.16-1.797-.605-4.58-.584-1.73-.072-1.417-.04-3.402.172-2.287-.23-3.2-.21.43-.477-2.327.087-1.138.12-4.667.224-6.802l.496 2.868-.09-1.92c.408 2.472.158-1.27.527.114-.016-1.31-.197-2.895-.336-4.155-.296 3.858-.87-4.26-1.257-3.125-.373-5.242.908-3.337-.11-8.773-.06.903-.552-1.66-.224 1.638-.15-3.264-.58-2.192-.632-6.05.355 2.843.262-3.084.775 1.02-.164-.27.03 2.302.11 2.933.085-1.354.46.252.255-3.09-.166-2.032-.346-4.826-.55-4.41-.247.103.218 3.113-.118 1.82-.336-4.054.006-4.755-.543-6.41.19 2.564-.03 3.22-.207 3.186l-.287-2.978.203.568c-.172-4.787-.39-1.392-.63-6.03l.2-2.19c.352 1.084.285 6.746.7 5.894-.167-3.013-.464-3.997-.517-6.845.065.63.155 1.488.222 2.112-.05-1.08.498-2.196-.125-6.467-.275-2.208-.2-.576-.377-.618-.34-4.832-.605-6.263-.92-9.365.396.614-.438-5.49.203-2.09-.03.8.107 2.94.314 5.094.178 2.155.377 4.328.598 5.175.293-1.788.176 3.8.646 4.815-.228-3.883.18-3.722.4-4.365-.048-1.078-.22-2.114-.3-2.753-.27-.438-.182.968-.43 1.066-.148-4.337-.742-8.478-1.154-10.84-.004-1.45.28-1.016.45.69-.515-5.133-.952-10.626-1.298-15.51-.127 3.188-.563-5.434-.707-3.25.136 2.622.046 4.895-.257 3.473-.113-1.637.18.035.205-.656-.395-2.057.07-3.268-.447-5.274.532 4.676.564.865.95 1.696-.467-3.367.232.122-.055-3.224-.232-1.68-.47-3.552-.7-5.47-.298-1.907-.6-3.858-.89-5.713-.06-1.18-.232-2.504-.465-3.89-.22-1.39-.475-2.844-.736-4.28-.59-2.86-1.258-5.64-1.705-7.694-.368-2.173.33-.806-.18-3.147-.67-2.725.124 2.117-.704-1.963l.162.37c-.17-.603-.607-2.458-1.123-4.29-.5-1.837-1.06-3.652-1.506-4.16l.75 1.114c-.198-.75-.5-1.413-.73-2.013.11-.064-.053-.963.404.22-.258-1.264-.672-2.552-1.127-3.853-.49-1.29-1.027-2.59-1.488-3.908l.374 1.77c-.834-2.24-1.527-4.11-2.215-5.96-.653-1.863-1.397-3.67-2.296-5.796l.256.04-1.22-2.466c.466.527-.41-1.848-1.206-3.083 0 0 .896 1.556 1.723 3.15l1.156 2.186c.3.604.502 1.006.502 1.006.63 1.895-1.068-1.91-.8-.668.23 1.05 1.9 4.99 2.314 5.576-.558-1.543-.624-1.605-1.183-2.75.09-.62 1.01 1.695 1.62 2.784-.317-.8-.655-1.984-.823-2.114.738 1.522 1.393 3.106 2.348 5.76-.736-1.765.16 1.044-.16.39.166.06.488.72.902 1.78a42.65 42.65 0 0 1 1.393 4.197c.477 2.457 2.096 6.204 3.043 10.14-.66-1.52-1.47-3.467-2.225-5.798.547 2.472.764 2.708 1.31 5.185.497 1.134 1.005 1.908 1.91 5.092l-.155.218c.785 2.895 1.025 2.846 1.762 6.592.336 1.6.53 3.24.807 4.845.237 1.61.556 3.19.72 4.745.357 3.1.822 6.002.965 8.484l-.184.21c.67 2.71.95 9.177 1.46 12.87.35 6.337 1.373 13.71 1.303 16.978.31 2.783.47 5.487.678 8.15l.575 7.93c.37 5.28.717 10.613 1.033 16.4l-.412-1.928c.342 2.06-.088 1.356.08 3.386.092-2.348.477 2.8.746 4.228.06 5.163.604 11.77 1.04 16.328l-.192.188c.602 4.6.55 10.132.748 15.887-.057.667-.203 1.718-.11 3.43.23 1.555.356 2.74.474 4.11.03.33.057.674.088 1.036.02.19.045.39.07.604l.037.313.016.074.092-.007.19-.014.798-.067c3.346 0 8.777.08 12.176.207l4.733-.14 3.97-.085.26-.01.015-.27.025-.53.133-2.258c.096-1.593.19-3.188.285-4.79.2-3.2.34-6.42.5-9.653.17-3.232.278-6.482.333-9.75l.275-.934c.002-3.17.072-6.52.178-9.93l.254-10.298c.094-3.414.188-6.77.277-9.95.03-3.18.037-6.18-.002-8.885l.398 1.05c.156-3.39-.033-7.73-.33-6.87.078-1.7.05-3.82.045-5.785-.008-1.966-.05-3.775.115-4.854.04-3.476-.23-4.252-.314-7.138.04-3.478.046-5.863.024-8.197-.025-2.336-.05-4.62-.225-7.894l.028 1.623c.113.718.29.776.26-.855-.195-2.44-.193-8.993-.598-6.545.045-7.008-.775-16.295-.635-23.142-.113.587-.197-1.135-.31-1.856-.218-6.15-.17-12.628-.564-17.53.032-.984.278 1.55.208-.955-.102-1.48-.176-.03-.313-1.85-.295-4.98-.404-10.03-.486-14.963-.087-4.935.052-9.76-.06-14.294-.22-8.058-.348-16.293-.445-24.443l.156-23.947.1.18c-.095-1.295-.07-2.705-.032-4.15l.082-2.192.05-1.1.034-.315.03-.296-.245-.046-.286-.01c-.287 0-.568.002-.846.003-1.313.014-2.52.072-3.553.213-1.22-.093-4.666-.044-3.756-.232-4.118.264-11.526-.25-17.474.086.545.01.86-.01 1.49-.053-6.008-.215-11.31.08-17.648-.115.643-.042 1.81-.073 2-.17-2.447-.188-5.805.41-7.15-.06-1.403.005-1 .236-.135.223-13.89-.183-28.71.118-43.155.225-5.18-.14-5.337-.34-5.222-.458.058-.06.184-.1-.216-.103l-1.066.024-2.163.093c-.316-.09-.145.18-.224.083a2.79 2.79 0 0 1-.426.015c-.102-.034-.047.09-.073.13l-.03.176c-.048.267-.11.333-.192 1.036-.15 1.106-.286 2.093-.196 3.193.315-.9.114 1.462.288 1.53-.387 6.324-.688 7.59-.625 12.59l-.14-.38c.245 5.867-.198 12.643.142 17.6l-1.274 47.678c-.184 7.855-.45 15.695-.574 23.52l-.397 23.518c-.164 7.77-.325 15.5-.486 23.22l.12 23.155.102 23.247.35 23.503c-.25 7.41-.252 7.97.166 16.082-.075-.325-.104-.836-.15-.29.17.2.222 1.63.272 3.104.01.297.02.597.032.883l.025.164.053.085.132-.086 11.384.018c3.643-.01 7.29-.022 11.048-.034l.153-2.4c.098-1.453.196-2.937.298-4.44-.094 1.9.11 2.87.24.614l-.05-2.374.118-.378c.057-1.544.01-3.238-.204-1.65 1.65-30.175 4.724-59.767 6.856-89.287.335-3.5.66-7.744.968-12.067.33-4.324.75-8.743 1.112-12.56 1.496-11.273 3.397-21.947 6.17-32.486 1.398-5.264 2.986-10.51 5.225-15.658l.86-1.928.962-1.906c.684-1.262 1.396-2.514 2.313-3.732.29-.403.695-.842 1.072-1.242l.148-.148.21-.006.42-.013.846-.027 2.166-.022 4.28-.05s-.75.212-2.685.448c-.994.12-2.175.238-3.906.354l-.78.05-.2.012-.142.147-.267.322c-.182.21-.353.45-.506.673-.135.203-.287.403-.416.62-.53.86-1.057 1.825-1.624 2.88z"/><path d="M299.457 344.46c.223.79 1.264 3.213.168 1.41.023-.3-.424-1.596-.168-1.41zM315.916 412.293c.055.085.02 1.002.01 1.227-.086-.86-.293-1.654-.266-2.35.088.872.153.73.256 1.123zM317.354 430.176c-.168-.257-.61-4.07-.824-6.326l.824 6.326zM318.047 446.887c-.035 1.45-.127 1.057-.242-.887.068-.146.146.492.242.887zM318.45 448.05c.09 1.388.044 2.08.003 2.763.12-.063-.275-3.21-.002-2.764zM320.168 484.32c.055.872.268 2.754.145 3.575.068-.916-.39-4.233-.145-3.575zM321.21 501.17c.017.544 0 .768.073 1.4-.02 1-.178-.047-.232-.893l.16-.508zM330.195 272.206l1.826-.07-.268.143zM242.41 322.815c.033 1.824-.178 1.265-.21 1.566.038-1.643.162.614.21-1.565zM241.053 395.44l.007-.552.295.195zM246.24 283.99l15.26-.374c4.576-.114 9.917-.253 15.638-.345 5.723-.104 11.825-.217 17.93-.33l9.105-.205c3.004-.092 5.96-.118 8.822-.157 2.86.003 5.627.03 8.248.112 2.623.062 5.102.147 7.39.25 9.155.383 15.26 1.05 15.26 1.05v.3s-6.105.667-15.26 1.05c-2.288.103-4.767.188-7.39.25-2.62.083-5.387.11-8.248.112-2.86-.04-5.818-.065-8.822-.157l-9.106-.205-17.93-.33c-5.72-.093-11.06-.232-15.638-.346l-15.26-.375v-.3zM246.21 303.645s1.984-.58 4.908-1.57c1.46-.5 3.148-1.117 4.937-1.812 1.782-.71 3.67-1.48 5.497-2.353a38.946 38.946 0 0 0 2.65-1.417l2.442-1.492 2.227-1.365c.35-.22.685-.438.98-.673.326-.21.614-.433.882-.658.547-.44 1.014-.874 1.383-1.3.216-.203.345-.423.496-.623.165-.195.282-.39.376-.576.23-.363.344-.682.434-.906.094-.23.145-.35.145-.35h.3l.08.387c.056.26.127.65.08 1.15 0 .514-.146 1.122-.388 1.79-.127.328-.272.69-.477 1.02-.194.343-.398.716-.67 1.04-.5.707-1.134 1.372-1.853 2-.704.653-1.524 1.216-2.394 1.75a21.35 21.35 0 0 1-2.807 1.33c-.98.382-1.963.772-2.963 1.11-3.96 1.443-8.02 2.403-11.082 2.982-3.057.602-5.12.83-5.12.83l-.06-.292zM344.14 303.94s-2.065-.23-5.122-.832c-3.063-.58-7.123-1.54-11.084-2.982-.998-.337-1.982-.728-2.96-1.11a21.29 21.29 0 0 1-2.808-1.33c-.87-.533-1.69-1.096-2.395-1.75-.718-.628-1.353-1.294-1.85-2-.272-.324-.478-.697-.67-1.04a6.087 6.087 0 0 1-.48-1.02c-.24-.668-.387-1.276-.387-1.79a3.61 3.61 0 0 1 .082-1.15l.078-.388h.3s.052.122.146.35c.087.226.202.544.433.907.094.186.21.38.375.577.15.2.28.42.496.622.37.427.836.86 1.383 1.3.266.226.555.45.88.66.298.233.634.452.98.672l2.228 1.366 2.44 1.492c.85.503 1.743.97 2.65 1.417 1.827.874 3.716 1.644 5.5 2.354 1.786.695 3.476 1.31 4.935 1.812 2.924.99 4.906 1.57 4.908 1.57l-.06.293z"/><path d="M273.864 273.305s.18.677.385 1.693c.107.508.237 1.1.347 1.735.125.635.215 1.312.318 1.99.088.676.342 1.353.363 1.988.007.636-.166 1.23-.36 1.736-.21.508-.44.932-.665 1.228-.213.296-.39.466-.39.466h-.298s-.176-.17-.39-.466c-.224-.296-.454-.72-.665-1.228-.193-.508-.366-1.1-.36-1.735.022-.634.276-1.31.364-1.988.104-.677.193-1.354.318-1.99.11-.634.24-1.227.348-1.734.205-1.016.385-1.693.385-1.693h.3z"/><path d="M276.84 273.305s.18.677.385 1.693c.108.508.238 1.1.348 1.735.125.635.215 1.312.318 1.99.09.676.343 1.353.364 1.988.007.636-.166 1.23-.36 1.736-.21.508-.44.932-.665 1.228-.214.296-.39.466-.39.466h-.3s-.175-.17-.388-.466c-.225-.296-.455-.72-.666-1.228-.193-.508-.366-1.1-.36-1.735.022-.634.276-1.31.364-1.988.104-.677.193-1.354.318-1.99.11-.634.24-1.227.348-1.734.205-1.016.385-1.693.385-1.693h.3zM313.69 273.305c-.003 0 .177.677.382 1.693.11.508.238 1.1.348 1.735.127.635.215 1.312.318 1.99.088.676.342 1.353.363 1.988.01.636-.165 1.23-.358 1.736-.21.508-.44.932-.666 1.228-.213.296-.387.466-.387.466h-.302s-.176-.17-.39-.466c-.224-.296-.454-.72-.665-1.228-.193-.508-.365-1.1-.357-1.735.02-.634.275-1.31.36-1.988.106-.677.194-1.354.32-1.99.108-.634.24-1.227.347-1.734.205-1.016.385-1.693.385-1.693h.3z"/><path d="M316.664 273.305s.18.677.385 1.693c.106.508.237 1.1.347 1.735.125.635.213 1.312.318 1.99.086.676.342 1.353.36 1.988.01.636-.163 1.23-.356 1.736-.212.508-.442.932-.667 1.228-.213.296-.39.466-.39.466h-.3s-.174-.17-.387-.466c-.225-.296-.457-.72-.666-1.228-.193-.508-.367-1.1-.36-1.735.022-.634.276-1.31.364-1.988.104-.677.19-1.354.318-1.99.11-.634.238-1.227.348-1.734.205-1.016.385-1.693.383-1.693h.3zM290.328 273.305l.384 8.86c.243 5.316.433 12.405.666 19.493l.205 5.29a128 128 0 0 1 .158 5.122 93.06 93.06 0 0 1-.11 4.79 117.787 117.787 0 0 1-.252 4.292c-.376 5.316-1.05 8.86-1.05 8.86h-.3s-.674-3.544-1.05-8.86c-.104-1.33-.19-2.77-.25-4.292a93.092 93.092 0 0 1-.112-4.79c.012-1.662.073-3.378.156-5.123l.205-5.29c.234-7.087.424-14.176.666-19.492l.385-8.86h.3zM301.305 284.14c.19 3.824.328 7.646.484 11.47.17 3.822.253 7.644.384 11.467.12 3.823.23 7.645.404 11.468.094 1.91.15 3.822.133 5.734 0 1.91-.1 3.82-.194 5.733l-.057 1.107-.942.204c-1.857.403-3.726.77-5.605 1.102-1.885.31-3.772.605-5.695.78l-.08-.29c1.736-.84 3.508-1.562 5.28-2.268 1.78-.685 3.572-1.333 5.372-1.947l-.996 1.313c-.096-1.912-.193-3.823-.197-5.734-.016-1.913.04-3.824.135-5.735.174-3.823.28-7.645.402-11.468.13-3.823.215-7.645.385-11.468.157-3.824.294-7.646.485-11.47h.3zM252.223 301.658a227.79 227.79 0 0 1-.384-4.42c-.12-1.474-.243-2.947-.34-4.42l-.052-.803.924-.07c1.628-.12 3.255-.207 4.882-.3l2.44-.173c.814-.07 1.628-.153 2.442-.193a22.298 22.298 0 0 1 2.44.026c.407.02.813.072 1.22.107.407.034.814.08 1.22.143.815.105 1.628.248 2.442.425a17.97 17.97 0 0 1 2.44.69v.3c-.813.294-1.628.514-2.44.687-.814.178-1.627.32-2.44.425a17.97 17.97 0 0 1-1.222.143c-.406.035-.813.087-1.22.107-.814.054-1.628.062-2.44.027-.814-.04-1.628-.124-2.44-.194l-2.442-.172c-1.627-.093-3.254-.18-4.882-.302l.873-.872c-.097 1.474-.22 2.947-.34 4.42a211.853 211.853 0 0 1-.383 4.42h-.3zM340.045 301.658a227.776 227.776 0 0 1-.383-4.42c-.12-1.474-.242-2.947-.338-4.42l.87.872c-1.626.122-3.253.208-4.88.302l-2.44.172c-.814.07-1.628.153-2.442.193-.813.035-1.627.027-2.44-.027-.405-.02-.813-.072-1.22-.107-.406-.034-.814-.08-1.22-.143a28.932 28.932 0 0 1-2.442-.425 17.917 17.917 0 0 1-2.44-.688v-.3a18.294 18.294 0 0 1 2.44-.688c.814-.18 1.63-.32 2.44-.426.407-.063.815-.108 1.222-.143.406-.034.814-.086 1.22-.106a22.303 22.303 0 0 1 2.44-.027c.814.04 1.63.123 2.44.193l2.442.172c1.627.093 3.254.18 4.88.302l.927.07-.052.802c-.096 1.474-.22 2.947-.34 4.42a218.894 218.894 0 0 1-.383 4.42h-.3zM298.943 277.554l-.026.13c-.026.088-.016.205-.073.38-.037.18-.102.377-.186.62-.096.235-.23.506-.455.786-.237.25-.568.53-1 .63l-.162.04-.082.02-.042.01c-.035 0 .07.006-.08-.002h-.028l-.25.018c-.132.026-.525-.053-.766-.123a2.854 2.854 0 0 1-1.32-.902 3.202 3.202 0 0 1-.644-1.62l.006-.13v-.01l-.002-.017-.002-.035-.003-.07-.008-.14c-.016-.056.01-.26.042-.45.063-.403.185-.67.31-.968.293-.565.762-1.06 1.343-1.33.576-.246 1.24-.317 1.754-.158.08.04.47.176.726.342.266.16.384.365.54.534.256.394.363.78.416 1.092.044.32.037.57.03.764.012.19-.033.335-.03.43l-.008.143v.017zm-.3-.015l-.036-.12c-.028-.076-.044-.195-.154-.308-.077-.124-.25-.23-.436-.297a1.095 1.095 0 0 0-.64.023c-.092.05-.21.078-.23.15-.03.08.07.1-.17.134-.116.05-.13.128-.193.126-.053.02-.14.002-.27.028l-.142.025c-.022-.012-.062-.042-.08.088l-.035.136-.018.068-.01.034-.004.017-.002.008v.005c0-.053-.01.124.004-.117a.904.904 0 0 0-.012.46c.062.15.146.322.29.453l.067.07c.013.027.04.063.144.08l.242.067.014.004.008.003h.003c-.15-.006-.04 0-.072-.002l.02.004.036.008.074.018a1.8 1.8 0 0 0 .668.036c.105-.03.224-.058.328-.104l.27-.18c.148-.145.248-.302.283-.442.063-.128.043-.275.05-.356v-.133.02zM259.776 447.367c-.01.076.127.038.022.068l-.022-.068zM270.022 431.72c.2.395-.285.433-.215.77l-.164-.037c.118.36-.234.58-.584.7l-.04-.048.006.22-.09-.063c.092.076-.01.118.05.188l-.19-.063.096.102c.218.25-.142.177-.073.373l-.067-.054c.052.276-.117.47-.182.7l-.154-.105c.112.087.104.166.095.232-.137-.057.056.16-.052.176l-.023-.02c.1.126-.117.017.014.15l-.116-.032c.16.132-.13.007-.066.1l.036.022-.07.075-.022-.01c-.004.104-.127.087.008.17-.125-.042-.002-.103-.186-.163-.02.338-.214.575-.373.826l-.155-.025.018.176-.094-.02c-.08.014.114.147.022.157l-.117-.104c.078.11.024.156.025.23l-.066-.07c.084.133-.09.085-.046.182l-.065-.068c-.145.017.146.128.048.16l-.076-.07c.1.153-.012.225-.005.317l-.03-.023c-.027.08-.117.124-.105.237l-.2-.04c.156.098-.017.163.187.235l-.16.18-.19-.154-.12-.02-.04-.067-.037.15c.064.11.215.27.185.36l-.196-.134.23.3-.11-.01.083.09c-.023-.002-.03.13-.19.043l-.077-.07-.007.133-.02-.013c-.044.017.005.135.11.155l-.03-.055.034.198-.096-.09c.08.14.075.232.08.336l-.07-.098c-.16.025.02.28-.176.26l.087.048-.12.02-.004.09-.025-.04c.027.074.017.3-.135.335l.095.173-.092-.07-.123.03c.087.12.018-.245.066-.123-.09-.036.097.187-.024.088-.025.046.056.158-.062.142l-.126-.082.033.118.02.058c.093.063-.048.047.07.092-.08-.043-.01.12-.16.014l-.116-.088.14.184-.062-.027c.185.124-.057.054.067.18-.102.013-.1.138-.232.09l-.002.185-.047-.066-.02.08-.237-.017.196.174c-.21-.08.04.2-.16.14l-.12-.116c-.208-.08.087.17-.044.175l.164.084c-.113-.035.027.15-.124.042.042.057-.1.04.055.13-.192.022-.086.303-.395.193l.047.094c.1.028-.037-.074.025-.047l.055.06c-.055.01-.082.03-.187-.08-.14.01.206.237.088.29l-.095-.018.072.12c-.063.042-.162-.06-.268-.126l.037.144-.157-.047c.113.033.045.066.063.098l-.018-.03-.043.058.15.01.05.12c-.1-.073-.107.004-.134.022l.062.098-.1-.03.03-.034-.1.013c.03.063.206.124.105.14l-.085-.097-.087.018.092.063-.048-.023c.087.08-.022.1.08.184l-.128.033-.006-.01-.02.128-.02-.015.012.118c-.098 0-.36-.213-.275-.09l.2.2c-.115.038-.02.225-.212.203l.066.082c-.11.09-.046.314-.29.287l-.145-.098c.066.082-.107-.023.03.08l.18.07c0 .1-.066.203-.17.19l.083.067c-.13-.09-.185-.054-.16.016l.077.06-.1-.03c.016.03.16.128.058.114l-.095-.045c.04.082.12.21.02.21l-.142-.043.11.095c-.12.025-.16.067-.277.023.17.29.062.48-.05.613l-.06-.043.033.09-.2-.13c-.1.014.062.14.065.195.077.058-.032-.063.065.01.025.026-.113.038.004.126l-.186-.125.036.073c-.17-.05-.19-.262-.396-.33l-.002.043c-.146-.052-.09-.177-.185-.125l.27.222c-.013.094.27.223.21.293-.086-.025.022-.072-.088-.123-.123-.027.007.108-.05.118l.182.142-.148-.053.162.13c.146.122-.082.028.022.138-.124-.055-.223-.225-.32-.2.116.06.1.17.282.243l-.19-.11c-.088-.01.145.212-.077.083l.104.084-.152-.036c-.02.028.088.194-.078.083.012.02-.04.084.092.133.097.003-.054-.104.118-.026-.146-.053-.023.072.003.125l-.066-.04.044.112-.1-.057.087.08c.01.09-.182-.1-.19-.022l-.048-.094-.082.028.24.215c.018.058-.11-.05-.04.04l-.08-.112-.192-.02.19.163-.14-.042.127.137c-.07-.02-.19-.022-.3-.045l-.12-.143-.02.028c-.097-.116-.105-.04-.218-.144l.014.1c.242.073.234.248.432.352-.003.113-.484-.242-.25.03l.152.064c-.053.038.164.156.05.166-.05-.094-.22-.074-.29-.21l.06-.026-.218-.074c-.002.044-.027.09.074.146.106.066.02-.057.113.033-.005.088-.173-.006-.002.142l.2.06.014.075-.064-.056c-.1.043.113.105.047.166l-.16-.057c-.11-.096.12-.07-.082-.185l-.03.134-.017-.06c-.018.013-.287-.138-.18.027l.137.104.014.217c-.137-.103-.07.077-.18-.07.1.028.16-.085.042-.2-.188-.082.062-.044-.1-.17-.043.057-.207-.054-.322-.115l.027.08c.098.072.11.05.217.117-.07.05-.057.15.02.254l-.156-.117c-.02.1-.09.175-.17.23.198.06-.017.11.145.168l.268.097-.116-.06c.07.09-.18-.046-.055.08-.008-.108-.195-.147-.318-.245.04.1-.093-.063-.126-.01.04.1.054.2.045.277-.174-.007-.124.186-.162.254l-.272-.106c-.025.046.182.072.072.092l-.025-.025c.02.044-.178.055.022.212l-.147-.124.018.06-.13-.093c-.138-.032-.038.095-.062.142l.113.033c.025.123-.1.11-.113.205l-.092-.063.027.08-.107.004-.155-.26c.074.005.09.106.194.146.09.035.108-.047.026-.116l.014.075c-.135-.075-.105-.11-.18-.186l-.016.04-.014-.146.12.072c-.11-.078-.12-.143-.052-.176.156.047-.02-.156.058-.195.1.1.17.19.192.26l.11-.048-.218-.26.088.054-.078-.2c.107-.074.176-.178.236-.248l.086.052c-.153-.16.026-.187-.018-.298.146-.045.06-.266.237-.222.048-.216.082-.41.23-.57l.103.11c-.07-.09.085.026.087-.018-.123-.027-.1-.127-.16-.198.147-.018.11-.188.068-.315l.09.052c-.114-.176.08-.17.165-.244l.14.016c-.106-.138-.08-.156-.12-.283l.21-.132c-.065-.32.19-.44.203-.72l.11.05c-.086-.335.265-.45.264-.69l.16.127c.088-.02.034-.15-.096-.215.086-.02.002-.186.164-.128l-.03-.178c.136-.066.147-.115.182-.238l-.027.02.13.064c-.022-.068.137-.11-.092-.205.188-.032.068-.316.297-.318l-.086-.098c.06-.097.238-.124.193-.263l.11.05-.085-.095c-.004-.223.31-.244.375-.402.055-.32.277-.546.416-.797l.04.03c-.106-.183.28-.086.087-.303l.135.005c-.068-.137.22-.11.14-.295l.008.037c.15-.035.08-.197.226-.242l.05.076c.104.015-.113-.2.098-.094l-.092-.063c.217-.166.24-.478.34-.73.223-.085.34.204.275-.02l-.028-.03c-.023-.085.27.066.188-.035-.13-.064-.053-.066-.126-.115.143-.047.266.004.223-.133l.06.047c-.12-.208.044-.25-.114-.463.29-.525.484-1.082.778-1.587.355-.458.568-.993.997-1.412.243-.007.243-.02.257-.188l.057.043c-.133-.096.046-.098-.078-.195.144-.164.214-.355.335-.543l.11.085-.062-.093.042.018-.115-.11c.186-.547.76-.83 1.025-1.312.128-.072.176-.262.225-.398.412-.232.766-.453.868-.895 0-.007.326.27.312.472zM259.807 447.287c.077.033.14.016.212.108l-.213-.108z"/><path d="M261.223 446.654l.052.008.003.054zM261.446 446.402l.053.176-.054-.176zM261.866 446.306l.07.065-.07-.064zM261.74 446.197l.097.002c-.053-.034 0 .07-.098-.003zM262.284 445.748l.048-.048-.048.048zM262.36 445.426l.014-.024.068.065zM265.213 440.488l.01.05-.056-.045zM266.567 438.393l.082.02-.083-.02zM266.993 437.066l-.004.01-.124-.084zM335.51 445.304c.066.04.086-.104.072.006l-.072-.006zM325.08 429.777c.443-.03.29.432.63.5l-.1.135c.378.03.442.44.415.81l-.057.02.205.078-.094.058c.104-.055.103.057.19.028l-.13.15.13-.05c.316-.102.107.2.316.213l-.076.04c.275.06.39.292.576.44l-.158.102c.125-.07.193-.03.25.003-.105.104.17.013.143.117l-.028.013c.156-.04-.03.114.146.048l-.076.092c.184-.096-.045.123.066.102l.033-.025.044.094-.018.017c.094.044.03.15.16.06-.088.098-.098-.04-.223.106.3.15.445.42.615.665l-.086.133.17.053-.055.08.154.04-.14.066c.13-.028.152.04.22.065l-.09.035c.155-.025.042.116.15.113l-.09.034c-.042.14.175-.086.165.018l-.094.044c.18-.032.204.1.292.128l-.033.02c.062.055.065.154.177.187l-.117.17c.152-.108.145.076.29-.083l.105.218-.217.115-.066.1-.076.014.125.093c.126-.018.33-.094.4-.03l-.196.128.365-.094-.054.098.115-.042c-.01.02.11.08-.032.192l-.096.045.12.058-.02.016.187-.044-.064.01c.104-.04.164-.002.197.044l-.12.053c.16-.02.243.02.34.058l-.118.026c-.04.157.268.09.172.263l.078-.062-.027.12.08.038-.047.007c.08.005.282.103.257.256l.197-.02-.1.057-.023.124c.147-.03-.216-.11-.085-.107-.068.07.21-.017.072.058.03.04.166.01.105.11l-.125.085.123.016.06.004c.093-.06.024.063.112-.03-.07.06.107.058-.05.154l-.126.073.223-.057-.05.046c.188-.12.027.072.19.008-.024.1.09.145-.007.248l.172.074-.08.017.068.05-.107.212.236-.115c-.156.162.197.04.066.2l-.154.065c-.154.16.188-.013.143.108l.14-.117c-.073.092.15.033-.007.13.068-.015 0 .108.143.002-.055.187.244.198.023.44l.104-.008-.03-.04.075-.027c-.012.055-.006.087-.148.14-.043.132.3-.097.305.032l-.055.08.137-.022c.016.075-.115.127-.217.2l.146.02-.105.127c.076-.092.08-.017.115-.02l-.035.003.037.063.066-.134.132.002c-.107.062-.037.1-.03.132l.112-.02-.064.08-.02-.04c-.028.044-.12.103-.028.098.07-.005.195-.144.17-.044l-.12.04-.02.088.095-.06-.04.034c.106-.05.083.06.2-.003l-.02.13h-.012l.11.07-.022.01.115.037c-.04.09-.34.25-.19.218l.26-.104c-.01.12.2.104.106.273l.1-.03c.04.14.27.166.152.38l-.146.096c.102-.03-.063.09.084.004l.137-.14c.09.04.16.142.108.23l.096-.05c-.135.086-.12.15-.05.155l.085-.05-.067.08.13-.008-.08.07c.093-.007.24-.028.202.06l-.096.116.13-.063c-.023.12 0 .173-.088.265.334-.045.467.13.547.286l-.062.032.096.004c-.066.027-.105.115-.197.133-.025.1.154 0 .207.018.082-.05-.07.006.035-.056.03-.015-.01.117.114.045l-.188.12.082-.005c-.113.137-.316.075-.46.236l.04.02c-.105.114-.197.013-.188.12l.31-.16.35-.08-.147.032c-.072.102.104.035.092.09l.2-.11-.106.115.18-.1c.17-.086-.005.088.138.034-.098.093-.293.117-.31.216.103-.083.196-.024.333-.164l-.173.13c-.043.08.25-.05.047.105l.117-.063-.09.125c.017.03.212-.004.044.104.023 0 .063.072.158-.03.04-.09-.115.007.023-.12-.105.114.057.05.115.045l-.06.047.118.003-.092.07.107-.05-.094.168-.106.007-.006.087.29-.14c.062.007-.09.083.022.054l-.135.03-.096.17.226-.113-.094.114.174-.064c-.047.057-.094.168-.158.26l-.178.056.02.03c-.145.042-.078.08-.22.144l.1.026c.16-.194.32-.12.49-.26.105.046-.41.35-.065.24l.117-.115c.014.063.205-.09.17.02-.105.008-.154.174-.305.184l-.002-.063-.152.172c.04.02.072.06.162-.012.104-.072-.043-.04.076-.092.08.038-.073.156.13.057l.133-.16.074.016-.074.037c-.002.107.14-.064.17.02l-.115.127c-.13.063-.018-.14-.2.004l.11.078-.06-.007c.003.02-.24.21-.046.175l.146-.086.205.07c-.146.087.045.095-.137.14.066-.08-.014-.183-.166-.117-.148.14-.016-.074-.195.023.035.063-.13.17-.23.254l.082.005c.107-.062.09-.082.193-.154.018.086.117.112.242.082l-.17.098c.084.06.13.153.148.25.133-.162.096.057.21-.07l.194-.208-.102.083c.11-.03-.11.148.053.083-.104-.036-.21.122-.35.197.107.002-.094.06-.06.11a.593.593 0 0 1 .274.068c-.073.156.122.186.17.247l-.204.208c.033.04.137-.14.113-.03l-.034.015c.047-.004-.02.184.203.06l-.173.09.06.006-.136.083c-.08.114.075.07.108.11l.076-.09c.123.023.063.135.145.184l-.095.06.084.006c-.097.05-.128.128-.04.1l-.3.043.212-.123c.068-.07 0-.118-.096-.07l.074.018c-.123.096-.145.055-.242.094l.03.03-.14-.045.113-.084c-.114.073-.177.056-.18-.02.103-.126-.153-.043-.16-.13a.794.794 0 0 1 .315-.075v-.117c-.098.038-.238.113-.322.098l.082-.06-.215-.006c-.027-.128-.096-.23-.14-.313l.083-.06c-.207.08-.162-.096-.28-.1.015-.15-.224-.156-.112-.304-.18-.128-.345-.234-.435-.434l.143-.053c-.11.028.057-.07.018-.088-.074.102-.156.042-.246.07.04-.143-.13-.174-.264-.187l.082-.06c-.205.036-.125-.143-.158-.248l.068-.123c-.168.044-.176.013-.31 0l-.038-.245c-.322-.064-.334-.345-.584-.467l.088-.082c-.342-.05-.313-.42-.533-.512l.18-.1c.017-.086-.124-.088-.235.007.016-.087-.17-.074-.055-.202l-.174-.04c-.008-.15-.05-.18-.15-.26l.008.032.11-.095c-.073-.006-.05-.17-.226.005.045-.187-.264-.187-.178-.397l-.123.04c-.064-.09-.02-.267-.164-.278l.088-.082-.12.04c-.207-.082-.104-.38-.225-.5-.273-.176-.395-.47-.572-.694l.04-.024c-.206.025.034-.293-.24-.198l.056-.123c-.153.01-.02-.247-.218-.244l.037.008c.024-.152-.15-.15-.138-.303l.092-.017c.053-.09-.23.027-.05-.126l-.095.06c-.07-.264-.347-.406-.542-.598.01-.238.322-.233.092-.26l-.04.014c-.09-.01.165-.223.04-.187-.11.095-.082.022-.154.07.012-.15.105-.242-.037-.257l.065-.037c-.238.03-.213-.138-.47-.074-.372-.47-.81-.868-1.16-1.335-.284-.504-.692-.908-.913-1.467.088-.226.078-.23-.074-.31l.063-.035c-.14.085-.07-.08-.21-.004-.096-.197-.244-.337-.37-.52l.122-.07-.11.02.032-.03-.146.063c-.432-.384-.47-1.023-.81-1.455-.017-.146-.17-.264-.278-.36-.055-.47-.12-.883-.486-1.15.006 0 .386-.19.566-.1zM335.45 445.243c.06-.06.067-.124.18-.153l-.18.153z"/><path d="M335.418 443.693l.025-.046.05.02zM335.27 443.39l.183.02-.182-.02zM335.346 442.965l.088-.04-.088.04zM335.195 443.04l.04-.09c-.05.037.068.03-.04.09zM334.994 442.363l-.025-.063c-.038.047.12.013.024.063zM334.727 442.167l-.016-.02.087-.04zM331.29 437.62l.048.007-.063.036zM329.885 435.557l.05-.068-.05.067zM328.828 434.647l.008.008-.125.08zM261.82 513.422l.045-.057-.046.057zM243.115 513.43c.223-.382.52.002.765-.242l.058.157c.237-.297.613-.122.904.105l-.018.06.182-.127-.006.11c.015-.12.106-.056.13-.145l.052.19.033-.134c.092-.32.227.02.354-.145l-.01.085c.203-.195.458-.16.687-.232l-.004.188c.012-.14.082-.177.143-.205.028.146.104-.134.176-.054l-.006.033c.053-.152.08.088.12-.095l.036.114c.02-.206.076.105.12 0v-.04l.1.017.003.023c.09-.055.143.06.14-.1.032.127-.087.058-.036.244.294-.167.598-.136.895-.14l.063.144.14-.11.034.09.118-.105-.022.154c.05-.126.117-.107.177-.147l-.02.093c.063-.142.118.03.175-.06l-.02.092c.093.112.026-.193.106-.127l-.016.104c.074-.168.194-.113.27-.17l-.004.037.254-.042.076.19c-.004-.185.146-.076.094-.286l.238.036-.024.243.046.112c-.006.076-.047-.025-.03.07l.145-.052c.055-.114.106-.326.197-.35l-.004.235.127-.355.05.098.03-.12c.012.022.127-.046.14.136l-.015.104.115-.067v.025c.038.027.11-.078.068-.18l-.027.058c.025-.106.09-.137.146-.14l-.023.13c.073-.143.153-.188.237-.25l-.043.113c.108.12.223-.172.313.004l-.007-.1.084.09.077-.046-.02.045c.05-.064.243-.18.355-.072l.095-.174-.01.114c.024.068.087-.01.09.088.056-.14-.21.12-.136.01.02.097.103-.182.088-.025.05-.003.102-.133.15-.025l.002.15.08-.093.037-.048c.003-.11.067.015.04-.11.008.093.105-.056.1.13l-.01.145.076-.22.012.066c.004-.222.076.02.113-.153.067.076.17.006.203.145l.156-.1-.03.074.078-.03.116.21.037-.26c.05.22.145-.144.204.056l-.03.163c.047.22.093-.162.17-.057l-.02-.183c.032.113.108-.105.103.08.024-.065.09.06.08-.118.124.15.3-.092.377.227.018-.03.063 0 .053-.092-.03-.1-.04.07-.052.003l.02-.077c.04.04.07.053.034.2.085.11.087-.302.195-.233l.036.09.06-.126c.072.028.042.167.045.292.037-.022.083-.017.1-.11l.047.157c-.034-.113.03-.075.048-.105l-.018.03.072.004-.074-.13.074-.107c-.01.123.062.087.09.1l.05-.105.03.1-.046-.006.066.076.058-.164-.034.123.063.062.003-.11.007.052c.018-.117.096-.036.11-.168l.097.09-.006.01.118-.055-.002.025.093-.074c.05.084.02.42.074.28l.06-.275c.093.075.198-.107.285.065l.03-.1c.138.043.29-.134.398.085v.175c.03-.1.04.103.05-.068-.004-.1 0-.15-.04-.19.082-.054.206-.055.252.04l.012-.108c-.005.16.055.185.1.128l.007-.098.03.1c.017-.03.017-.205.063-.11l.014.103.164-.134.043.143.02-.143c.087.086.144.096.172.22.148-.303.366-.315.54-.295l-.004.073.058-.076v.237l.13-.16c.006-.096-.035.063-.027-.06.008-.035.094.074.104-.07l-.004.222.04-.07c.052.17-.112.304-.058.513l.037-.022c.036.152-.1.173-.005.224l.037-.347c.086-.04.04-.347.13-.336.026.086-.073.02-.054.14.043.118.086-.064.125-.023l.02-.228.037.152.018-.205c.023-.19.07.05.105-.097.02.134-.066.31.006.377-.013-.13.09-.177.05-.367l.01.218c.043.08.1-.235.113.02l.014-.13.053.145c.036.002.115-.18.113.02.01-.02.094-.012.06-.15-.05-.083-.058.102-.087-.084.037.152.074-.02.104-.07l.005.077.07-.098.007.114.018-.117.087.172-.052.09.068.054.047-.32c.04-.046.018.122.056.012l-.05.13.088.173.03-.25.044.14.042-.18c.02.07.087.17.127.274l-.052.18h.035c-.045.145.023.11-.002.262l.077-.067c-.072-.243.078-.333.057-.554.097-.06.063.537.163.19l-.03-.16c.06.022.04-.223.11-.132-.05.09.06.224-.017.355l-.055-.035.058.222c.04-.02.09-.025.083-.14-.002-.128-.06.013-.034-.115.074-.045.088.147.117-.076l-.06-.2.056-.053-.01.084.11-.13.042.165c-.02.144-.125-.063-.11.17l.128-.05-.04.048c.02.008.042.316.122.135l.01-.17.174-.13c-.01.17.103.017.04.19-.03-.1-.16-.09-.19.073.032.2-.07-.028-.09.176.07.005.07.203.08.333l.052-.066c.008-.12-.018-.12-.02-.245.08.032.157-.036.2-.155l-.012.194a.388.388 0 0 1 .288.016c-.06-.2.102-.047.06-.213l-.063-.276.012.13c.038-.108.06.176.098.004-.086.064-.016.243-.03.4l.06.11.21-.19c.087.147.222.002.3-.005l.06.285.037-.11-.007.036c.022-.04.142.12.163-.134l-.022.19.04-.046-.007.16c.048.132.1-.02.15-.027l-.033-.113.233-.018-.002.11.05-.065c-.01.107.036.177.064.087l-.132.27c-.037-.063.04-.133.017-.242-.02-.095-.1-.065-.112.042l.056-.053c.01.155-.034.15-.058.253l.043-.008-.115.09-.006-.14c-.004.137-.053.18-.118.142-.046-.157-.12.102-.194.06.03-.14.066-.25.112-.306l-.1-.064c-.022.104-.038.26-.1.323l-.003-.103-.124.175c-.12-.05-.244-.05-.337-.062l-.005-.1c-.05.216-.17.08-.24.177-.116-.098-.253.098-.313-.076-.207.08-.39.156-.604.12l.036-.147c-.038.108-.025-.085-.063-.063.046.117-.05.153-.076.243-.097-.114-.218.012-.303.115l-.002-.102c-.086.19-.188.024-.295-.006l-.064-.126c-.058.164-.09.153-.173.256l-.226-.104c-.23.23-.47.086-.71.226l-.02-.12c-.233.257-.524.027-.724.158l.018-.204c-.063-.063-.143.055-.125.2-.065-.064-.16.1-.2-.068l-.13.122c-.13-.077-.18-.06-.3-.02l.03.012-.017-.145c-.045.057-.167-.054-.12.188-.13-.14-.303.116-.43-.072l-.034.124c-.115.003-.235-.132-.326-.02l-.018-.118-.033.123c-.185.125-.375-.126-.543-.094-.297.13-.61.065-.895.09l.003-.05c-.095.187-.226-.19-.3.09-.023-.045-.087-.02-.07-.114-.076.132-.215-.123-.324.045l.027-.026c-.11-.106-.208.04-.325-.056l.036-.085c-.045-.094-.105.206-.13-.03l-.003.112c-.258-.09-.532.062-.8.116-.192-.14-.013-.395-.163-.22l-.012.043c-.06.065-.092-.263-.133-.14.017.145-.026.08-.028.17-.117-.094-.14-.225-.233-.114l.006-.077c-.107.216-.234.102-.324.35-.598.048-1.17.188-1.754.22-.577-.045-1.14.07-1.727-.06-.138-.2-.147-.193-.298-.11l.005-.07c-.007.163-.106.015-.12.172-.217-.03-.416.016-.64.02l.012-.143-.044.105-.007-.046-.03.16c-.56.144-1.11-.184-1.66-.14-.13-.068-.314-.005-.456.03-.42-.218-.8-.392-1.224-.236-.004 0 .05-.425.225-.524zM261.736 513.438c-.015-.082-.064-.126-.026-.236l.026.236z"/><path d="M260.43 512.602l-.022-.047.044-.033zM260.098 512.555l.117-.14-.117.14zM259.786 512.255l.017-.094-.017.095zM259.764 512.42l-.05-.08c0 .06.06-.04.05.08zM259.09 512.213l-.066-.015c.018.057.078-.093.066.015zM258.778 512.324l-.026.002.017-.094zM253.086 512.645l.035-.036-.005.072zM250.59 512.66l-.028-.078.03.08zM249.248 513.032l.01-.002-.003.15zM349.643 513.468l.045-.057-.045.058zM330.938 513.476c.223-.382.52.002.766-.242l.057.157c.24-.296.614-.12.905.106l-.018.06.182-.127-.007.108c.016-.118.107-.055.13-.144l.052.19.033-.134c.092-.32.227.02.354-.145l-.008.086c.203-.194.457-.16.686-.23l-.004.187c.012-.142.082-.178.143-.206.028.147.103-.133.175-.053l-.006.032c.052-.153.08.087.12-.096l.035.114c.02-.206.076.105.12 0v-.04l.1.017.003.024c.09-.056.143.06.14-.102.032.128-.087.06-.036.245.295-.167.6-.136.896-.14l.063.144.14-.112.035.09.12-.104-.024.155c.05-.125.118-.106.18-.146l-.022.092c.064-.142.12.03.176-.06l-.02.092c.093.112.026-.193.106-.127l-.016.103c.074-.168.195-.113.27-.17l-.004.037.254-.043.076.19c-.004-.185.146-.076.094-.286l.238.036-.023.243.044.11c-.006.077-.047-.024-.03.07l.145-.05c.054-.115.106-.327.196-.352l-.004.236.127-.354.05.098.03-.12c.01.022.126-.046.14.136l-.016.104.115-.067v.024c.038.028.108-.077.067-.178l-.027.057c.025-.107.09-.138.146-.14l-.023.13c.074-.144.154-.19.238-.25l-.042.112c.11.12.223-.172.313.004l-.005-.1.084.09.075-.046-.025.047c.05-.063.244-.178.355-.07l.096-.175-.01.114c.024.068.087-.01.09.088.056-.14-.21.12-.136.01.02.097.104-.182.088-.025.05-.005.102-.135.152-.027v.15l.08-.093.037-.048c.003-.11.067.015.04-.11.008.093.105-.056.1.13l-.01.145.076-.22.012.067c.004-.222.076.02.113-.153.067.077.17.007.204.146l.156-.1-.03.074.08-.03.114.21.037-.26c.05.22.146-.144.204.056l-.03.163c.048.218.093-.164.17-.06l-.02-.182c.032.113.108-.105.103.08.025-.065.09.06.08-.118.125.15.3-.092.377.227.018-.03.063 0 .053-.09-.03-.1-.04.07-.05.002l.02-.08c.038.04.07.054.032.2.085.11.087-.3.196-.232l.035.09.062-.126c.07.028.04.167.043.292.037-.022.084-.017.1-.11l.047.157c-.033-.112.03-.074.05-.104l-.02.03.073.004-.074-.13.075-.107c-.01.123.06.087.09.1l.05-.105.028.1-.045-.006.066.076.06-.164-.036.123.064.063.002-.11.006.052c.018-.117.096-.036.11-.168l.097.09-.006.01.118-.055-.002.023.094-.074c.05.082.02.42.074.278l.06-.275c.093.075.198-.107.286.065l.03-.1c.138.043.288-.134.4.085l-.003.175c.033-.1.04.103.05-.068-.003-.1 0-.15-.038-.19.08-.054.204-.055.25.04l.013-.108c-.006.16.055.185.1.128l.006-.098.03.1c.016-.03.018-.205.063-.11l.014.103.164-.134.044.144.02-.143c.088.087.145.097.172.22.148-.302.367-.314.54-.294l-.003.073.057-.078v.237l.13-.162c.005-.096-.036.063-.028-.06.008-.035.094.074.104-.07l-.004.222.04-.07c.052.17-.112.304-.06.513l.04-.022c.034.153-.1.174-.005.225l.037-.347c.086-.04.037-.347.13-.336.026.086-.073.02-.056.14.045.118.088-.064.127-.023l.02-.23.037.152.018-.205c.023-.19.068.052.104-.096.023.135-.066.31.008.378-.012-.13.088-.177.05-.367l.01.22c.042.078.1-.237.114.02l.014-.133.053.146c.035.002.115-.18.11.02.013-.02.095-.012.064-.15-.053-.083-.06.102-.088-.084.036.15.073-.022.103-.072l.004.077.068-.098.008.115.02-.117.086.172-.054.09.07.055c.016-.107.033-.235.047-.32.037-.046.018.122.055.012l-.05.13.087.173.03-.25.044.142.042-.183c.02.07.088.172.127.275l-.054.18h.037c-.047.145.023.11-.002.262l.077-.067c-.072-.242.078-.332.057-.553.098-.06.064.537.164.19l-.03-.16c.06.022.038-.223.11-.132-.053.09.06.224-.018.355l-.055-.034.06.222c.036-.02.09-.025.08-.14-.003-.128-.058.013-.034-.115.077-.045.09.147.12-.076l-.06-.2.056-.053-.012.085.11-.13.042.165c-.02.144-.125-.063-.107.17l.126-.05-.04.048c.02.008.042.316.12.135l.012-.17.174-.13c-.012.17.102.017.04.19-.03-.1-.16-.09-.192.073.035.2-.07-.028-.088.176.072.005.068.203.082.333l.05-.066c.01-.123-.02-.12-.02-.247.082.032.158-.036.2-.155l-.01.194a.39.39 0 0 1 .288.016c-.06-.2.102-.047.06-.213l-.065-.276.014.13c.038-.11.062.174.1.002-.09.064-.017.243-.032.4l.06.11.21-.19c.088.147.22.002.3-.005l.06.286.037-.11-.008.036c.023-.043.143.118.164-.136l-.022.19.04-.046-.005.16c.05.132.1-.02.152-.027l-.035-.112.234-.018-.002.11.05-.065c-.01.107.036.177.062.087l-.13.27c-.038-.063.038-.133.015-.242-.02-.095-.1-.065-.112.042l.055-.053c.012.153-.035.147-.057.25l.04-.007-.112.09-.008-.14c-.002.137-.053.18-.117.142-.048-.157-.12.102-.196.06a.804.804 0 0 1 .113-.306l-.1-.066c-.02.104-.037.26-.098.323l-.005-.102-.125.175c-.12-.05-.246-.05-.338-.062l-.004-.1c-.05.216-.17.08-.238.177-.117-.098-.254.098-.316-.076-.207.077-.387.154-.602.118l.035-.147c-.037.11-.025-.084-.063-.062.043.117-.053.153-.078.243-.096-.113-.22.013-.303.116l-.004-.102c-.085.19-.19.024-.296-.006l-.063-.126c-.056.164-.087.153-.17.256l-.228-.104c-.232.23-.47.086-.713.226l-.02-.12c-.233.257-.522.027-.722.158l.018-.204c-.063-.063-.143.055-.127.2-.064-.064-.157.1-.198-.068l-.13.122c-.132-.077-.18-.06-.3-.02l.03.012-.017-.145c-.045.057-.168-.054-.12.188-.132-.14-.304.116-.43-.072l-.034.125c-.114.003-.233-.132-.325-.02l-.018-.118-.033.124c-.184.126-.375-.125-.543-.093-.296.13-.608.066-.894.09l.004-.05c-.096.188-.227-.19-.3.092-.024-.047-.087-.022-.07-.116-.077.132-.216-.123-.325.045l.027-.028c-.11-.106-.21.04-.326-.056l.037-.085c-.047-.093-.107.207-.133-.028l-.002.11c-.258-.09-.53.063-.8.117-.192-.14-.013-.397-.163-.22l-.012.04c-.06.066-.092-.262-.133-.14.018.146-.025.082-.027.17-.117-.093-.14-.224-.232-.113l.007-.076c-.107.217-.234.103-.324.35-.598.05-1.17.19-1.754.22-.577-.044-1.142.07-1.728-.058-.14-.2-.148-.194-.3-.112l.007-.07c-.01.164-.108.016-.122.173-.217-.03-.416.016-.64.02l.013-.143-.042.105-.008-.046-.03.157c-.558.145-1.11-.183-1.66-.14-.128-.067-.313-.004-.454.03-.42-.217-.8-.39-1.225-.235 0-.003.054-.427.228-.526zM349.56 513.484c-.017-.082-.065-.126-.026-.236l.025.236z"/><path d="M348.254 512.647l-.024-.046.043-.032zM347.92 512.6l.117-.14-.117.14zM347.61 512.3l.015-.093-.016.094zM347.588 512.467l-.05-.082c0 .062.058-.04.05.082zM346.914 512.26l-.066-.016c.017.057.078-.093.066.015zM346.602 512.37l-.026.002.016-.094zM340.91 512.69l.033-.035-.005.073zM338.414 512.707l-.03-.08.03.08zM337.07 513.078l.012-.002-.004.15z"/></svg>